<svg width="235" height="314" viewBox="0 0 235 314" fill="none" xmlns="http://www.w3.org/2000/svg">
<rect width="235" height="314" fill="#D9D9D9"/>
<g clip-path="url(#clip0_716_7)">
<path d="M169.392 163.112C175.737 151.025 162.84 142.643 145.977 138.532C147.246 135.648 147.614 131.874 144.036 128.27C139.449 123.657 142.498 116.938 142.498 116.938C142.498 116.938 132.868 125.82 138.948 131.945C141.191 134.202 142.359 136.185 142.917 137.843C138.262 136.883 133.548 136.234 128.807 135.898C130.223 132.049 130.361 127.215 125.899 122.585C119.79 116.24 123.858 107 123.858 107C123.858 107 111.017 119.213 119.125 127.634C122.084 130.704 123.643 133.407 124.398 135.673C119.373 135.522 114.537 135.743 110.241 136.344C110.752 133.868 110.325 131.021 107.594 128.271C103.006 123.659 106.057 116.938 106.057 116.938C106.057 116.938 96.4258 125.82 102.508 131.945C104.412 133.863 105.529 135.575 106.169 137.068C105.444 137.227 104.74 137.399 104.063 137.586C83.1244 135.627 73.9919 139.953 78.164 148.439C70.8831 155.72 73.6192 164.03 82.7302 170.388C87.4837 189.967 88.7076 206.375 124.509 206.375C156.455 206.375 160.869 193.307 164.826 176.582C176.698 174.219 174.168 168.528 169.392 163.112M166.432 161.156C162.455 169.636 145.197 176.019 124.509 176.019C103.823 176.019 86.5645 169.636 82.5861 161.156C82.5017 160.904 82.4205 160.643 82.3394 160.388C84.2341 155.581 90.392 151.411 99.041 148.618C97.0088 150.583 96.5864 153.516 101.934 154.544C103.465 154.839 107.667 153.819 105.83 148.605C105.573 147.876 105.154 147.388 104.639 147.093C110.582 145.733 117.328 144.95 124.509 144.95C125.314 144.95 126.104 144.978 126.897 144.996C122.754 146.467 119.373 150.998 127.835 152.335C129.703 152.63 134.833 151.609 132.59 146.396C132.394 145.931 132.08 145.525 131.679 145.22C139.608 145.803 146.791 147.33 152.597 149.531C147.491 149.246 141.827 152.393 150.898 156.823C152.844 157.774 158.757 158.647 157.944 152.89C157.885 152.474 157.738 152.075 157.513 151.72C162.156 154.167 165.394 157.133 166.677 160.388L166.432 161.156Z" fill="#A5A5A5"/>
<path d="M107.793 165.018C113.147 165.018 116.718 160.177 119.516 158.282C123.424 155.632 133.252 154.598 124.597 154.39C116.387 154.193 106.251 160.857 99.4765 160.399C88.2604 159.637 99.7482 165.018 107.793 165.018M119.363 174.909C121.255 175.273 126.454 174.011 124.179 167.564C121.611 160.268 106.06 172.348 119.363 174.909ZM89.9216 158.951C88.1147 156.4 85.4945 153.166 84.4096 154.85C82.9273 157.154 82.4602 161.79 83.5368 161.995C91.977 163.613 91.3857 161.016 89.9216 158.951M138.988 159.985C140.51 158.1 137.471 153.563 135.52 154.357C132.466 155.599 130.705 154.757 129.364 156.642C126.222 161.056 136.919 162.543 138.988 159.985ZM138.037 165.386C135.848 164.42 136.365 167.655 133.13 165.059C130.814 163.201 125.832 167.888 129.118 171.071C132.775 174.614 133.749 171.247 135.286 171.53C138.41 172.105 143.781 167.92 138.037 165.386ZM101.63 166.492C100.488 165.369 98.9581 166.724 98.0936 168.377C97.2373 167.956 96.54 167.858 96.54 167.858C95.8858 165.993 93.9397 164.715 93.9397 164.715C93.9397 164.715 94.1169 166.654 94.3736 167.6C92.2238 166.836 92.1576 162.994 92.1576 162.994C92.1576 162.994 90.715 163.857 90.8458 165.323C88.479 163.413 86.4634 164.306 86.4634 164.306C86.4634 164.306 89.4662 165.995 89.8802 167.135C88.1942 167.265 87.2103 167.848 86.6373 169.205C86.6389 169.216 89.9697 167.62 92.4342 168.773C91.4619 169.568 91.9456 171.553 91.9456 171.553C94.2395 169.122 96.0713 169.382 97.5371 169.818C97.3598 170.561 97.3714 171.24 97.6861 171.653C100.228 174.995 109.084 174.243 111.463 171.772C114.343 168.783 106.34 171.128 101.63 166.492" fill="#A5A5A5"/>
<path d="M107.885 153.903C107.132 155.417 107.127 156.559 107.998 157.749C108.01 157.752 108.349 154.075 110.603 152.551C110.787 153.794 112.738 154.396 112.738 154.396C111.178 148.871 115.733 148.583 115.711 146.6C113.296 146.804 111.925 148.56 111.925 148.56C109.989 148.164 107.89 149.176 107.89 149.176C107.89 149.176 109.648 150.019 110.59 150.286C108.831 151.738 105.499 149.822 105.499 149.822C105.499 149.822 105.499 151.505 106.824 152.142C103.97 153.194 103.702 155.38 103.702 155.38C103.702 155.38 106.693 153.673 107.885 153.903M150.204 161.449C150.89 160.147 149.89 158.794 149.89 158.794C149.89 158.794 148.351 162.317 146.074 162.196C146.673 161.421 147.584 159.698 147.584 159.698C147.584 159.698 145.295 160.134 143.973 161.603C143.973 161.603 141.827 161.008 139.767 162.28C140.929 163.887 144.762 161.407 146.794 166.777C146.794 166.777 148.003 165.132 147.412 164.024C150.131 163.907 152.593 166.659 152.601 166.649C152.591 165.175 151.908 164.261 150.4 163.493C151.221 162.6 154.643 162.194 154.643 162.194C154.643 162.194 153.126 160.596 150.204 161.449" fill="#A5A5A5"/>
</g>
<defs>
<clipPath id="clip0_716_7">
<rect width="106" height="106" fill="white" transform="translate(65 104)"/>
</clipPath>
</defs>
</svg>
