<svg id="Layer_1" data-name="Layer 1" xmlns="http://www.w3.org/2000/svg" viewBox="0 0 151.58 110.58"><defs><style>.cls-1{fill:#ebebeb;}.cls-2{fill:#f1f0f0;}.cls-3{fill:#fafbfc;}.cls-4{fill:#e0e1e0;}.cls-5{fill:#f5f6f6;}.cls-6{fill:#e6e6e5;}.cls-7{fill:#5274b9;}.cls-16,.cls-18,.cls-19,.cls-8{fill:#fff;}.cls-20,.cls-8{opacity:0.5;}.cls-11,.cls-12,.cls-15,.cls-18,.cls-19,.cls-20,.cls-21,.cls-8{isolation:isolate;}.cls-9{fill:#813f3d;}.cls-10{fill:#803f3c;}.cls-11{fill:#ffeee4;}.cls-12,.cls-15,.cls-20{fill:#010101;}.cls-12{opacity:0.2;}.cls-13{fill:#273339;}.cls-14{fill:#f37260;}.cls-15{opacity:0.3;}.cls-17{fill:#631112;}.cls-18{opacity:0.8;}.cls-19{opacity:0.6;}.cls-21{fill:#e2e2e2;}</style></defs><g id="freepik--background-complete--inject-52"><rect class="cls-1" x="126.35" y="104.13" width="10.04" height="0.08"/><rect class="cls-1" x="97.78" y="104.96" width="2.63" height="0.08"/><rect class="cls-1" x="120.23" y="101.32" width="5.82" height="0.08"/><rect class="cls-1" x="15.9" y="101.83" width="13.09" height="0.08"/><rect class="cls-1" x="31.7" y="101.83" width="1.92" height="0.08"/><rect class="cls-1" x="39.86" y="103.11" width="28.4" height="0.08"/><path class="cls-1" d="M96,130.05H37.49a1.73,1.73,0,0,1-1.73-1.73V46a1.73,1.73,0,0,1,1.73-1.72H96a1.73,1.73,0,0,1,1.73,1.74h0v82.27A1.73,1.73,0,0,1,96,130.05ZM37.49,44.38A1.67,1.67,0,0,0,35.83,46v82.29A1.67,1.67,0,0,0,37.49,130H96a1.67,1.67,0,0,0,1.66-1.65V46A1.67,1.67,0,0,0,96,44.38Z" transform="translate(-23.76 -44.31)"/><path class="cls-1" d="M161.6,130.05H103.06a1.74,1.74,0,0,1-1.73-1.73V46a1.73,1.73,0,0,1,1.73-1.72H161.6a1.74,1.74,0,0,1,1.74,1.74v82.27A1.74,1.74,0,0,1,161.6,130.05ZM103.06,44.38A1.65,1.65,0,0,0,101.41,46v82.29a1.65,1.65,0,0,0,1.65,1.65H161.6a1.65,1.65,0,0,0,1.66-1.65V46a1.65,1.65,0,0,0-1.66-1.65Z" transform="translate(-23.76 -44.31)"/><rect class="cls-1" y="99.26" width="151.58" height="0.08"/><rect class="cls-2" x="91.87" y="15.27" width="30.52" height="38.67"/><rect class="cls-3" x="94.91" y="19.12" width="24.44" height="30.97"/><rect class="cls-4" x="122.4" y="15.28" width="1.94" height="38.67"/><path class="cls-5" d="M127.34,79.4a7,7,0,0,0,9.89,9.89C140,86.56,130.07,76.67,127.34,79.4Z" transform="translate(-23.76 -44.31)"/><path class="cls-1" d="M137.36,78.57a5.5,5.5,0,1,0-7.78-7.78C127.44,73,135.21,80.73,137.36,78.57Z" transform="translate(-23.76 -44.31)"/><path class="cls-4" d="M127.94,76.05l0,1.7a.12.12,0,0,1-.14.11l-.06,0-.3-.25-1-2.66Z" transform="translate(-23.76 -44.31)"/><path class="cls-4" d="M128.48,75.51l1.92-.17a.09.09,0,0,0,.1-.1.11.11,0,0,0,0-.08l-.3-.25-3.12-.53Z" transform="translate(-23.76 -44.31)"/><polygon class="cls-4" points="105.69 31.95 105.15 32.49 104.65 31.91 104.97 31.58 105.69 31.95"/><path class="cls-1" d="M124.94,72.74l-2.57-2c-.17-.13-1.58-1-1.73-.87s1,1.28,1.19,1.41l2.56,2A20,20,0,0,0,126,75l2.1,1.63,1-1L127,74A18.88,18.88,0,0,0,124.94,72.74Z" transform="translate(-23.76 -44.31)"/><rect class="cls-6" x="115.4" y="57.86" width="16.75" height="41.51"/><rect class="cls-5" x="84.06" y="57.86" width="34.99" height="41.51"/><path class="cls-1" d="M124.28,141.63h-14.8V109.35A4.55,4.55,0,0,1,114,104.8h5.71a4.55,4.55,0,0,1,4.55,4.55v32.28Z" transform="translate(-23.76 -44.31)"/><path class="cls-1" d="M140.8,141.63H126V109.35a4.55,4.55,0,0,1,4.55-4.55h5.71a4.55,4.55,0,0,1,4.55,4.55v32.28Z" transform="translate(-23.76 -44.31)"/><path class="cls-4" d="M127.34,122.94a1.47,1.47,0,1,0,1.47-1.56A1.51,1.51,0,0,0,127.34,122.94Z" transform="translate(-23.76 -44.31)"/><path class="cls-4" d="M119.77,122.94a1.47,1.47,0,1,0,1.47-1.56,1.52,1.52,0,0,0-1.48,1.56Z" transform="translate(-23.76 -44.31)"/><path class="cls-4" d="M51.93,143.66h0a.3.3,0,0,1-.28-.32h0l6.1-73.09h.61v.61h0l-6.07,72.53A.29.29,0,0,1,51.93,143.66Z" transform="translate(-23.76 -44.31)"/><path class="cls-4" d="M79,143.66h0a.3.3,0,0,0,.28-.32h0l-6.1-73.09H72.6v.61h.05l3.9,46.74H56.93L53,70.25h-.61v.61h0l6.07,72.53a.29.29,0,0,0,.32.27h0a.29.29,0,0,0,.28-.32h0L57,118.2H76.62l2.11,25.19A.28.28,0,0,0,79,143.66Z" transform="translate(-23.76 -44.31)"/><polygon class="cls-5" points="56.68 63.63 27.7 63.63 24.04 19.78 53.02 19.78 56.68 63.63"/><path class="cls-1" d="M76.75,65.13h-29a1,1,0,0,1-1-1h0a1,1,0,0,1,1-1h29a1,1,0,0,1,1,1h0a1,1,0,0,1-1,1Z" transform="translate(-23.76 -44.31)"/><path class="cls-4" d="M65.2,99l-3.79,4a.39.39,0,0,1-.55,0,.4.4,0,0,1-.09-.21l-.16-1.29,3.87-8.36Z" transform="translate(-23.76 -44.31)"/><path class="cls-4" d="M67.68,99l4.79,4a.32.32,0,0,0,.47,0,.35.35,0,0,0,.1-.28l-.16-1.28L67,93.15Z" transform="translate(-23.76 -44.31)"/><polygon class="cls-4" points="44.41 58.66 41.93 58.66 42.12 56.19 43.62 56.19 44.41 58.66"/><path class="cls-1" d="M65.91,84.58,64.63,74.1c-.08-.68-1.28-5.94-2-5.94s-.61,5.26-.51,5.94l1.28,10.48a58.41,58.41,0,0,0,0,7.6l1.05,8.54h4.44l-1-8.54A62.16,62.16,0,0,0,65.91,84.58Z" transform="translate(-23.76 -44.31)"/><polygon class="cls-4" points="51.44 59.56 50.22 59.56 50.26 57.91 51 57.91 51.44 59.56"/><path class="cls-4" d="M73.32,102.62l-1-8.49c-.08-.64-.18-5.53.43-5.53s1.71,4.89,1.79,5.53l1,8.49Z" transform="translate(-23.76 -44.31)"/><polygon class="cls-4" points="36.29 59.56 35.06 59.56 35.1 57.9 35.85 57.9 36.29 59.56"/><path class="cls-4" d="M58.17,102.61l-1-8.49c-.08-.63-.18-5.52.43-5.52s1.71,4.89,1.79,5.52l1,8.49Z" transform="translate(-23.76 -44.31)"/><polygon class="cls-4" points="38.02 33.78 37.06 32.41 36.89 30.39 27.45 30.39 27.68 33.07 36.81 33.07 38.02 33.78"/><polygon class="cls-4" points="43.19 41.06 44.15 39.69 44.32 37.66 53.74 37.66 53.52 40.35 44.4 40.35 43.19 41.06"/></g><g id="freepik--Character--inject-52"><path class="cls-7" d="M114.1,120.55s6.18-2.52,19.37,2.39l-1.16-12.26.95-10.16-11.74-2.45L118,109Z" transform="translate(-23.76 -44.31)"/><path class="cls-8" d="M114.1,120.55s6.18-2.52,19.37,2.39l-1.16-12.26.95-10.16-11.74-2.45L118,109Z" transform="translate(-23.76 -44.31)"/><path class="cls-9" d="M126.31,82.72q-1.07,1.61-2.16,3.21L122,89.11c-.35.53-.72,1.06-1.07,1.58a4.63,4.63,0,0,1-.91,1,3.11,3.11,0,0,1-1.46.7,3.06,3.06,0,0,1-1.56-.16,3.94,3.94,0,0,1-1.12-.66,5.7,5.7,0,0,1-.82-.81,6.4,6.4,0,0,1-.63-.91l1.21-.93c.21.16.45.36.69.51a4.8,4.8,0,0,0,.7.39,2,2,0,0,0,.63.19A.53.53,0,0,0,118,90a1,1,0,0,0,.23-.22,4.14,4.14,0,0,0,.3-.5c.33-.58.66-1.15,1-1.71.68-1.12,1.38-2.22,2.08-3.31S123,82.06,123.75,81Z" transform="translate(-23.76 -44.31)"/><path class="cls-10" d="M115.77,89.16l-1.7-1.9-.8,2.48s1.32,1.35,2,.49Z" transform="translate(-23.76 -44.31)"/><polygon class="cls-10" points="88.04 42.45 88.07 44.82 89.51 45.42 90.31 42.95 88.04 42.45"/><path class="cls-7" d="M125.26,79.36c-2.81,1.38-6.89,9.15-7.38,10.12-.2.38-1.66-.42-1.66-.42L115,91.22a4.06,4.06,0,0,0,3.63,1.62c2.28-.32,3.41-2.76,4.07-4,.51-1,1.62-2.92,2.17-3.89C125.55,83.7,127.7,78.17,125.26,79.36Z" transform="translate(-23.76 -44.31)"/><path class="cls-11" d="M125.26,79.36c-2.81,1.38-6.89,9.15-7.38,10.12-.2.38-1.66-.42-1.66-.42L115,91.22a4.06,4.06,0,0,0,3.63,1.62c2.28-.32,3.41-2.76,4.07-4,.51-1,1.62-2.92,2.17-3.89C125.55,83.7,127.7,78.17,125.26,79.36Z" transform="translate(-23.76 -44.31)"/><path class="cls-12" d="M121.75,90.5a18.61,18.61,0,0,0,.94-1.69c.42-.8,1.21-2.22,1.82-3.24l.21-3.23-.51-.63C120.56,88.08,121.14,90.06,121.75,90.5Z" transform="translate(-23.76 -44.31)"/><polygon class="cls-10" points="91.04 106.74 88.94 106.06 90.25 101.1 92.35 101.78 91.04 106.74"/><path class="cls-13" d="M112.66,150.09l2.37.77a.16.16,0,0,1,.11.19h0l-.5,1.9a.38.38,0,0,1-.48.26c-.82-.29-1.2-.46-2.24-.8-.64-.2-3.38-1-4.26-1.31s-.57-1.15-.17-1.1a17.33,17.33,0,0,0,4.77.1A.61.61,0,0,1,112.66,150.09Z" transform="translate(-23.76 -44.31)"/><polygon class="cls-12" points="92.35 101.79 90.25 101.11 89.57 103.66 91.68 104.34 92.35 101.79"/><path class="cls-14" d="M121.23,95.92s-3,18-3.87,24.25c-1,6.87-4.77,27-4.77,27l3.9,1.08s5.57-19.48,7.15-26.16c1.72-7.25,5.49-26.16,5.49-26.16Z" transform="translate(-23.76 -44.31)"/><path class="cls-15" d="M126,103.29a28,28,0,0,0-1.08,13c.94-4.37,2-9.58,2.84-13.65C127.48,101.57,127,101,126,103.29Z" transform="translate(-23.76 -44.31)"/><polygon class="cls-7" points="92.83 104 88.65 102.84 88.73 101.14 93.44 102.77 92.83 104"/><path class="cls-7" d="M111.44,150a.3.3,0,0,1,0-.29.23.23,0,0,1,.16-.1c.29,0,.75.59.8.65a.06.06,0,0,1,0,.06.05.05,0,0,1-.05,0,2.83,2.83,0,0,1-.58-.11A.6.6,0,0,1,111.44,150Zm.19-.28a.08.08,0,0,0-.07.05.17.17,0,0,0,0,.18c.07.13.34.23.74.28C112.08,150,111.79,149.69,111.63,149.7Z" transform="translate(-23.76 -44.31)"/><path class="cls-7" d="M112.35,150.31a1.15,1.15,0,0,1-.22-.95.21.21,0,0,1,.23-.09.27.27,0,0,1,.19.14c.14.27-.1.86-.11.88s0,0,0,0h-.05Zm0-.94c-.07,0-.1,0-.11,0a1,1,0,0,0,.15.76,1.19,1.19,0,0,0,.08-.72.16.16,0,0,0-.09-.07Z" transform="translate(-23.76 -44.31)"/><polygon class="cls-10" points="107.87 107.71 105.66 107.71 105.38 102.59 107.59 102.59 107.87 107.71"/><path class="cls-13" d="M129.31,151.77h2.48a.16.16,0,0,1,.16.15l.12,2a.4.4,0,0,1-.38.4c-.87,0-1.28-.07-2.38-.07-.67,0-3.52.07-4.45.07s-.91-.91-.51-1c1.76-.37,3.94-.88,4.57-1.38A.68.68,0,0,1,129.31,151.77Z" transform="translate(-23.76 -44.31)"/><polygon class="cls-12" points="107.59 102.59 105.38 102.59 105.53 105.23 107.74 105.23 107.59 102.59"/><path class="cls-14" d="M125.55,95.8s.07,16.89.43,23.22c.39,6.93,2.37,29.89,2.37,29.89h4.05s-.12-22.4.12-29.26c.27-7.45.95-23.85.95-23.85Z" transform="translate(-23.76 -44.31)"/><polygon class="cls-7" points="108.79 104.59 104.42 104.59 104.17 103.06 109 103.3 108.79 104.59"/><path class="cls-7" d="M128.11,152a.3.3,0,0,1-.07-.28.19.19,0,0,1,.12-.15c.27-.11.9.32,1,.37a.08.08,0,0,1,0,.05s0,0,0,0a2.33,2.33,0,0,1-.59.08A.54.54,0,0,1,128.11,152Zm.09-.33a.11.11,0,0,0-.06.07.17.17,0,0,0,0,.18c.1.1.39.12.79,0C128.71,151.84,128.35,151.65,128.2,151.71Z" transform="translate(-23.76 -44.31)"/><path class="cls-7" d="M129.07,152.07c-.22-.13-.55-.59-.5-.84a.2.2,0,0,1,.19-.15.26.26,0,0,1,.22.07c.22.21.17.85.17.88s0,0,0,0h-.05Zm-.3-.89c-.08,0-.09,0-.1.08s.19.5.38.67a1.18,1.18,0,0,0-.15-.71.21.21,0,0,0-.11,0Z" transform="translate(-23.76 -44.31)"/><path class="cls-7" d="M138,81.81a51.42,51.42,0,0,0-2.36,7.34c-.43,1.74-.77,3.42-1,4.94-.63,3.57-.88,6.32-1.1,7.24l-12.09-2.45c-.08-13.23,3.9-19.52,3.9-19.52a24.38,24.38,0,0,1,3,0,4.48,4.48,0,0,1,.63.06,45.32,45.32,0,0,1,5.16,1c.32.08.64.17.95.27A31.35,31.35,0,0,1,138,81.81Z" transform="translate(-23.76 -44.31)"/><path class="cls-11" d="M138,81.81a51.42,51.42,0,0,0-2.36,7.34c-.43,1.74-.77,3.42-1,4.94-.63,3.57-.88,6.32-1.1,7.24l-12.09-2.45c-.08-13.23,3.9-19.52,3.9-19.52a24.38,24.38,0,0,1,3,0,4.48,4.48,0,0,1,.63.06,45.32,45.32,0,0,1,5.16,1c.32.08.64.17.95.27A31.35,31.35,0,0,1,138,81.81Z" transform="translate(-23.76 -44.31)"/><path class="cls-14" d="M129.12,81.92a15.76,15.76,0,0,0-1.94,3.78c0,.52.12,1,.22,1.58.38-.43.77-.85,1.18-1.27.61-2.24.48-2.88,1-4Z" transform="translate(-23.76 -44.31)"/><polygon class="cls-7" points="105.25 38.34 105.05 37.12 105.94 36.93 106.48 37.43 105.25 38.34"/><path class="cls-13" d="M135,80.75a40.25,40.25,0,0,0-7.56,6.53,14.45,14.45,0,0,1,.54-7.92,24,24,0,0,0-2.68,0s-4,6.29-3.89,19.52l12.09,2.45c.22-.91.47-3.67,1.1-7.24.27-1.51.61-3.2,1-4.94A51.42,51.42,0,0,1,138,81.81,31,31,0,0,0,135,80.75Z" transform="translate(-23.76 -44.31)"/><path class="cls-10" d="M134.6,74.59c-.64,1.58-1.54,4.54-.6,5.89a5.18,5.18,0,0,1-4.27.77c-1.41-.32-1.29-1.33-.87-1.81,1.93-.07,2.14-1.45,2.07-2.8Z" transform="translate(-23.76 -44.31)"/><path class="cls-16" d="M129.7,81.25s.39.79.89,1.6c1-.3,3.5-1.16,3.68-2.42a1.33,1.33,0,0,0-.48-.7A13.92,13.92,0,0,1,129.7,81.25Z" transform="translate(-23.76 -44.31)"/><path class="cls-16" d="M129.7,81.25a6.47,6.47,0,0,0-1.5,1.09c-.58-.6.3-2.81.6-3a1.65,1.65,0,0,1,1-.12S128.68,80.75,129.7,81.25Z" transform="translate(-23.76 -44.31)"/><path class="cls-12" d="M133.1,75.43l-2.17,1.21a4.92,4.92,0,0,1,0,.94A2.28,2.28,0,0,0,133,76.32,2.45,2.45,0,0,0,133.1,75.43Z" transform="translate(-23.76 -44.31)"/><path class="cls-13" d="M130.41,68.83c-.63.69-1.26,2.41.11,2.39S131.49,67.66,130.41,68.83Z" transform="translate(-23.76 -44.31)"/><path class="cls-10" d="M135.7,72.62c-.84,2.12-1.22,3.41-2.68,4.16a3.06,3.06,0,0,1-4.35-3.12c.17-2.1,1.51-5.22,3.91-5.37a3.15,3.15,0,0,1,3.34,2.95A3.26,3.26,0,0,1,135.7,72.62Z" transform="translate(-23.76 -44.31)"/><path class="cls-13" d="M132.21,72.12c-.05.18-.19.29-.3.25s-.16-.21-.1-.39.19-.3.3-.25A.31.31,0,0,1,132.21,72.12Z" transform="translate(-23.76 -44.31)"/><path class="cls-13" d="M130.22,71.45c-.06.18-.2.29-.3.25a.31.31,0,0,1-.11-.39c.06-.18.2-.29.31-.25A.31.31,0,0,1,130.22,71.45Z" transform="translate(-23.76 -44.31)"/><path class="cls-17" d="M130.83,71.75a6.51,6.51,0,0,1-1.34,1.17,1.1,1.1,0,0,0,.8.42Z" transform="translate(-23.76 -44.31)"/><path class="cls-13" d="M130.57,74.33l-.23-.06a.06.06,0,1,1,0-.11h0a1.42,1.42,0,0,0,1.31-.14.06.06,0,0,1,.08,0h0a.06.06,0,0,1,0,.08A1.52,1.52,0,0,1,130.57,74.33Z" transform="translate(-23.76 -44.31)"/><path class="cls-13" d="M133,71.68a.08.08,0,0,1-.08-.07.88.88,0,0,0-.56-.57.11.11,0,0,1,.06-.21h0a1.08,1.08,0,0,1,.7.71.11.11,0,0,1-.06.14Z" transform="translate(-23.76 -44.31)"/><path class="cls-13" d="M129.59,70.47a.1.1,0,0,1-.09-.12.09.09,0,0,1,0-.06,1.06,1.06,0,0,1,.93-.33.11.11,0,0,1,.09.12.11.11,0,0,1-.13.09h0a.84.84,0,0,0-.74.27A.08.08,0,0,1,129.59,70.47Z" transform="translate(-23.76 -44.31)"/><path class="cls-7" d="M135.17,80.6s-6.58,5.44-6.78,18a215.21,215.21,0,0,0,1.27,25h5.18s-3-6-1.14-21.81S138.57,82,138.57,82Z" transform="translate(-23.76 -44.31)"/><path class="cls-11" d="M135.17,80.6s-6.58,5.44-6.78,18a215.21,215.21,0,0,0,1.27,25h5.18s-3-6-1.14-21.81S138.57,82,138.57,82Z" transform="translate(-23.76 -44.31)"/><path class="cls-12" d="M134.2,94.06l-2.82-1.57-.91.63a12.23,12.23,0,0,0,3.79,4.5c.18-1.18.36-2.26.54-3.28Z" transform="translate(-23.76 -44.31)"/><path class="cls-12" d="M137.06,85.32l-.44-2.27h-.89l-.37,2a28.39,28.39,0,0,1,.41,4.78C136.23,87.91,136.67,86.45,137.06,85.32Z" transform="translate(-23.76 -44.31)"/><path class="cls-7" d="M127.9,79.3s-2.06,1.8-3.25,10-7.16,21.3-9.64,32.46l-2.06-.84s2.44-6,5.66-15.13,2.38-10.64,3.13-16a37.68,37.68,0,0,1,3.41-10.51Z" transform="translate(-23.76 -44.31)"/><path class="cls-11" d="M127.9,79.3s-2.06,1.8-3.25,10-7.16,21.3-9.64,32.46l-2.06-.84s2.44-6,5.66-15.13,2.38-10.64,3.13-16a37.68,37.68,0,0,1,3.41-10.51Z" transform="translate(-23.76 -44.31)"/><path class="cls-13" d="M133.25,71.79l-1.71-.55h-.08a.26.26,0,0,0-.24.17h0a.6.6,0,0,0-.49-.17h0a.26.26,0,0,0-.16-.3l-1.31-.45h-.08a.26.26,0,0,0-.24.18l-.27.82a.26.26,0,0,0,.17.3l1.31.43h.08a.25.25,0,0,0,.24-.18l.21-.66a.47.47,0,0,1,.5.16l-.21.67a.24.24,0,0,0,.16.3l1.71.56h.08a.24.24,0,0,0,.23-.18l.27-.82A.25.25,0,0,0,133.25,71.79Zm-2.93.22a.09.09,0,0,1-.1.07h0l-1.32-.43a.07.07,0,0,1-.06-.05.11.11,0,0,1,0-.08l.27-.82a.1.1,0,0,1,.1-.07h0l1.32.43s.05,0,.06,0a.11.11,0,0,1,0,.08Zm3,0-.26.82a.1.1,0,0,1-.1.07h0l-1.72-.55a.12.12,0,0,1-.07-.13h0l.27-.83a.12.12,0,0,1,.1-.07h0l1.72.56a.11.11,0,0,1,.07.13Z" transform="translate(-23.76 -44.31)"/><path class="cls-13" d="M125.74,91.75l-.59.16.16-.59,3.38-3.38a.31.31,0,0,1,.42,0h0a.3.3,0,0,1,0,.43Z" transform="translate(-23.76 -44.31)"/><path class="cls-18" d="M125.74,91.75l-.59.16.16-.59,3.38-3.38a.31.31,0,0,1,.42,0h0a.3.3,0,0,1,0,.43Z" transform="translate(-23.76 -44.31)"/><path class="cls-12" d="M128.69,87.94l-3.37,3.38-.16.59,4-4a.3.3,0,0,0-.43,0Z" transform="translate(-23.76 -44.31)"/><rect class="cls-7" x="128.36" y="88.27" width="0.24" height="0.6" transform="translate(-48.75 72.48) rotate(-45)"/><path class="cls-10" d="M130.47,91l-1.64-1.66-1,2.77s1.71,1.1,2.39.25Z" transform="translate(-23.76 -44.31)"/><polygon class="cls-10" points="103.17 44.74 102.43 47.07 104.05 47.76 105.07 44.98 103.17 44.74"/><path class="cls-9" d="M140.19,91.85a24.78,24.78,0,0,0-.26-2.72,40.64,40.64,0,0,0-1.1-5.24l-3,.81c.4,1.6.77,3.27,1,4.9.14.82.26,1.63.33,2.43a11.15,11.15,0,0,1,0,1.14,4.4,4.4,0,0,1-.07.89,3.35,3.35,0,0,1-.44-.07,12.93,12.93,0,0,1-2.18-.8c-.75-.34-1.5-.73-2.24-1.12s-1.5-.83-2.23-1.24l-.91,1.23a31.19,31.19,0,0,0,4.29,3.19,13.53,13.53,0,0,0,2.57,1.24,6,6,0,0,0,.81.2,3.43,3.43,0,0,0,1.06,0,2.41,2.41,0,0,0,.68-.2,2.6,2.6,0,0,0,.68-.5,2.35,2.35,0,0,0,.41-.63,2.72,2.72,0,0,0,.19-.47,6.89,6.89,0,0,0,.29-1.62Q140.22,92.56,140.19,91.85Z" transform="translate(-23.76 -44.31)"/><path class="cls-7" d="M130.05,93.12l1.12-1.89s4.8,2.56,5.67,2.38c0,0,.91-.8-1.61-9-.26-.85-.18-2.68,2.26-2.84,2.68-.18,2.89,5.69,3.1,8.79s.24,7-3.34,6.61S130.05,93.12,130.05,93.12Z" transform="translate(-23.76 -44.31)"/><path class="cls-11" d="M130.05,93.12l1.12-1.89s4.8,2.56,5.67,2.38c0,0,.91-.8-1.61-9-.26-.85-.18-2.68,2.26-2.84,2.68-.18,2.89,5.69,3.1,8.79s.24,7-3.34,6.61S130.05,93.12,130.05,93.12Z" transform="translate(-23.76 -44.31)"/><polygon class="cls-13" points="99.25 50.22 91.74 50.22 87.93 39.75 94.33 39.75 99.25 50.22"/><polygon class="cls-19" points="99.25 50.22 91.74 50.22 87.93 39.75 94.33 39.75 99.25 50.22"/><polygon class="cls-14" points="98.68 51.11 91.6 51.11 87.38 39.53 94.47 39.53 98.68 51.11"/><path class="cls-13" d="M113.26,83.57l.27.73a.71.71,0,0,0,.67.47h2a.32.32,0,0,0,.32-.32.36.36,0,0,0,0-.11l-.28-.77Z" transform="translate(-23.76 -44.31)"/><path class="cls-7" d="M113,83.57l.27.73a.71.71,0,0,0,.66.47h2a.32.32,0,0,0,.32-.32.36.36,0,0,0,0-.11l-.28-.77Z" transform="translate(-23.76 -44.31)"/><path class="cls-20" d="M113,83.57l.27.73a.71.71,0,0,0,.66.47h2a.32.32,0,0,0,.32-.32.36.36,0,0,0,0-.11l-.28-.77Z" transform="translate(-23.76 -44.31)"/><path class="cls-13" d="M134.65,73.66a3.18,3.18,0,0,1,.7-3s-3.56.09-3.33-1c0,0-3.28-.83-2.41-2.38a1,1,0,0,1,1.6-.23,1.26,1.26,0,0,1,1.09-1.33,1.13,1.13,0,0,1,1.39.81,2,2,0,0,1,2-.35,1.09,1.09,0,0,1,.61,1.38,2.27,2.27,0,0,1,1.83,1.12,1.69,1.69,0,0,1-.13,1.63,1.1,1.1,0,0,1,.7,1.52,1.16,1.16,0,0,1-1,.95,1.49,1.49,0,0,1-.86,1.54C135.74,74.85,134.65,73.66,134.65,73.66Z" transform="translate(-23.76 -44.31)"/><path class="cls-10" d="M135.94,74.7a2.07,2.07,0,0,1-1.4.86c-.76.11-1-.6-.76-1.25s1-1.37,1.67-1.18a1,1,0,0,1,.67,1.23A.93.93,0,0,1,135.94,74.7Z" transform="translate(-23.76 -44.31)"/><path class="cls-13" d="M132.46,73.91c-.23-.72-1.79-.18-1.79-.18-1.06-.52-1.07-.2-1.06.07,0,.85.06,2.91,1.58,3S132.69,74.63,132.46,73.91ZM131.74,76c-.64.48-.63-1.28-.63-1.28l-.64-.15s.65,1.12.12,1.42-.7-2.18-.7-2.18a1.75,1.75,0,0,0,.75.17c.68.34,1-.24,1.28,0a1.62,1.62,0,0,1-.18,2Z" transform="translate(-23.76 -44.31)"/></g><g id="freepik--Rocket--inject-52"><polygon class="cls-13" points="57.93 107.99 50.77 107.99 52.19 100.83 56.52 100.83 57.93 107.99"/><path class="cls-7" d="M74.53,140.93,62.16,152.54a1,1,0,0,1-1.75-.76v-3.71l14.12-24.13Z" transform="translate(-23.76 -44.31)"/><path class="cls-21" d="M74.53,140.93,62.16,152.54a1,1,0,0,1-1.75-.76v-3.71l14.12-24.13Z" transform="translate(-23.76 -44.31)"/><path class="cls-7" d="M81.69,140.94l12.36,11.6a1,1,0,0,0,1.47,0,1,1,0,0,0,.29-.71v-3.71L81.69,123.94Z" transform="translate(-23.76 -44.31)"/><path class="cls-21" d="M81.69,140.94l12.36,11.6a1,1,0,0,0,1.47,0,1,1,0,0,0,.29-.71v-3.71L81.69,123.94Z" transform="translate(-23.76 -44.31)"/><path class="cls-7" d="M81.7,99.21V69c0-2-1.6-17.13-3.57-17.13S74.54,67,74.54,69V99.21a170,170,0,0,0-2.84,21.94v24.64H84.53V121.15A169.46,169.46,0,0,0,81.7,99.21Z" transform="translate(-23.76 -44.31)"/><path class="cls-21" d="M81.7,99.21V69c0-2-1.6-17.13-3.57-17.13S74.54,67,74.54,69V99.21a170,170,0,0,0-2.84,21.94v24.64H84.53V121.15A169.46,169.46,0,0,0,81.7,99.21Z" transform="translate(-23.76 -44.31)"/><polygon class="cls-13" points="65.74 110.58 62.19 110.58 62.9 105.8 65.04 105.8 65.74 110.58"/><path class="cls-14" d="M84.52,151.25V126.77c0-1.84,1.44-15.94,3.21-15.94s3.21,14.1,3.21,15.94v24.49Z" transform="translate(-23.76 -44.31)"/><path class="cls-12" d="M88.08,111a92.86,92.86,0,0,1,1.55,15.23l-1,25h2.28V126.77C90.94,125.05,89.69,112.62,88.08,111Z" transform="translate(-23.76 -44.31)"/><rect class="cls-13" x="60.77" y="83.22" width="6.41" height="3.51"/><rect class="cls-8" x="60.77" y="83.22" width="6.41" height="3.51"/><polygon class="cls-13" points="46.51 110.58 42.96 110.58 43.66 105.8 45.81 105.8 46.51 110.58"/><path class="cls-14" d="M65.29,151.25V126.77c0-1.83,1.44-15.93,3.21-15.93s3.2,14.1,3.2,15.94v24.48Z" transform="translate(-23.76 -44.31)"/><path class="cls-12" d="M68.84,111a92.09,92.09,0,0,1,1.56,15.23l-1,25H71.7V126.77C71.7,125.05,70.44,112.62,68.84,111Z" transform="translate(-23.76 -44.31)"/><rect class="cls-13" x="41.54" y="83.21" width="6.41" height="3.51"/><rect class="cls-8" x="41.54" y="83.21" width="6.41" height="3.51"/><path class="cls-14" d="M81.71,70.78V68.91H74.55v1.87Z" transform="translate(-23.76 -44.31)"/><rect class="cls-14" x="50.79" y="52.6" width="7.16" height="1.98"/><polygon class="cls-13" points="50.78 99.48 48.95 99.48 49.87 92.01 50.78 92.01 50.78 99.48"/><polygon class="cls-13" points="53.64 99.49 51.82 99.48 52.43 92.01 53.64 92.01 53.64 99.49"/><polygon class="cls-13" points="56.5 99.49 54.68 99.49 54.68 92.01 55.9 92.01 56.5 99.49"/><polygon class="cls-13" points="59.36 99.49 57.54 99.49 57.54 92.01 58.46 92.01 59.36 99.49"/><path class="cls-13" d="M75.73,73.35h0a.47.47,0,0,1-.47-.47v-.54a.47.47,0,0,1,.47-.47h0a.47.47,0,0,1,.47.47v.54a.47.47,0,0,1-.47.47Z" transform="translate(-23.76 -44.31)"/><path class="cls-13" d="M77.2,73.35h0a.47.47,0,0,1-.47-.47v-.54a.47.47,0,0,1,.47-.47h0a.47.47,0,0,1,.47.47v.54A.47.47,0,0,1,77.2,73.35Z" transform="translate(-23.76 -44.31)"/><path class="cls-13" d="M78.67,73.35h0a.47.47,0,0,1-.47-.47v-.54a.47.47,0,0,1,.47-.47h0a.47.47,0,0,1,.47.47v.54A.47.47,0,0,1,78.67,73.35Z" transform="translate(-23.76 -44.31)"/><path class="cls-13" d="M80.14,73.35h0a.46.46,0,0,1-.46-.46h0v-.54a.47.47,0,0,1,.46-.47h0a.47.47,0,0,1,.47.47v.55A.46.46,0,0,1,80.14,73.35Z" transform="translate(-23.76 -44.31)"/><path class="cls-13" d="M75.73,75.77h0a.47.47,0,0,1-.47-.46v-.55a.47.47,0,0,1,.47-.47h0a.47.47,0,0,1,.47.47v.55a.47.47,0,0,1-.47.46Z" transform="translate(-23.76 -44.31)"/><path class="cls-13" d="M77.2,75.77h0a.47.47,0,0,1-.47-.46v-.55a.47.47,0,0,1,.47-.47h0a.47.47,0,0,1,.47.47v.55A.47.47,0,0,1,77.2,75.77Z" transform="translate(-23.76 -44.31)"/><path class="cls-13" d="M78.67,75.77h0a.47.47,0,0,1-.47-.46v-.55a.47.47,0,0,1,.47-.47h0a.47.47,0,0,1,.47.47v.55A.47.47,0,0,1,78.67,75.77Z" transform="translate(-23.76 -44.31)"/><path class="cls-13" d="M80.14,75.77h0a.47.47,0,0,1-.46-.46v-.55a.47.47,0,0,1,.46-.47h0a.47.47,0,0,1,.47.47v.55a.46.46,0,0,1-.46.46Z" transform="translate(-23.76 -44.31)"/><path class="cls-14" d="M71.7,121.15v1.08H84.53v-1.06c0-.76-.14-2.59-.37-5H72.08C71.84,118.57,71.7,120.41,71.7,121.15Z" transform="translate(-23.76 -44.31)"/><path class="cls-12" d="M81.7,99.21V69c0-1.86-1.42-15.46-3.25-17,1.34,4.12,2,14.55,2,16.19l-.27,30.55a175.21,175.21,0,0,1,2.15,22.9l-.85,24.17h3V121.16A162.57,162.57,0,0,0,81.7,99.21Z" transform="translate(-23.76 -44.31)"/></g></svg>