<svg id="Layer_1" data-name="Layer 1" xmlns="http://www.w3.org/2000/svg" viewBox="0 0 119.3 113.9"><defs><style>.cls-1{fill:#f5f6f6;}.cls-2{fill:#e0e1e0;}.cls-3{fill:#fff;}.cls-4{fill:#ebebeb;}.cls-5{fill:#fafbfc;}.cls-6{fill:#fbbf9e;}.cls-7{fill:#f7996e;}.cls-8{fill:#465b65;}.cls-9{fill:#273339;}.cls-10{fill:#f37260;}.cls-11,.cls-13{opacity:0.3;}.cls-12,.cls-13{fill:#010101;}.cls-13{isolation:isolate;}</style></defs><g id="freepik--background-complete--inject-30"><path class="cls-1" d="M132.07,153.89a2.1,2.1,0,0,1-.57-2.54,2.31,2.31,0,0,1,1.2-.84,5,5,0,0,0,1.31-.68,8.6,8.6,0,0,0,1.38-2.42,3,3,0,0,1,2.62-1.58,3.31,3.31,0,0,1,2.71,2.2,9.93,9.93,0,0,1,.49,3.64,2.55,2.55,0,0,1-.52,1.91,2.34,2.34,0,0,1-1.78.41l-6.7-.2" transform="translate(-39.97 -42.65)"/><path class="cls-2" d="M144.88,135.47H127.27l3.17,18.92a2.12,2.12,0,0,0,1.5,1.68l.07,0,.15,0a2.2,2.2,0,0,0,.36,0v0h7.94a3,3,0,0,0,.43,0,2.13,2.13,0,0,0,1.78-1.85l1.53-13,.07-.52h0l.61-5.16Zm-3.32,12.07h-1.81l.18-5.5H142Zm.64-5.5h1.73l-.64,5.5h-1.56ZM137,153.62l-.11-4.77h2.6l-.15,4.77Zm-2.81-4.77h2.53l.1,4.77H134.6Zm.19,4.77h-2.13l-.75-4.77H134Zm-.3-6.08-.42-5.5h2.9l.12,5.5Zm2.78,0-.13-5.5h3l-.19,5.5Zm-.16-6.81-.12-5.08H140l-.17,5.08Zm-.18,0h-3l-.39-5.08h3.24Zm-3.14,0h-3.14c-.11-.7-.22-1.37-.31-2-.33-2.06-.45-2.83-.53-3.12H133Zm.11,1.31.42,5.5h-2.6c-.09-.56-.18-1.12-.26-1.69-.21-1.29-.41-2.59-.61-3.8Zm-2.36,5.5h-1.7l-.92-5.5h1.76C130.57,143.74,130.87,145.63,131.17,147.54Zm.21,1.31c.26,1.65.52,3.27.74,4.77h-1.63l-.8-4.77Zm8.17,4.77.16-4.77h1.74l-.4,4.77Zm.43-12.9.17-5.08h2.42l-.43,5.08Zm-10.71-5.08c.07.37.39,2.37.83,5.08h-1.77l-.85-5.08Zm13.31,18h-1.36l.4-4.77h1.51Zm1.51-12.9h-1.78l.45-5.07h1.94Z" transform="translate(-39.97 -42.65)"/><rect class="cls-2" x="77.22" y="4.65" width="33.28" height="52.6"/><rect class="cls-1" x="78.12" y="5.64" width="31.38" height="50.75"/><rect class="cls-3" x="93.8" y="8.59" width="12.51" height="19.41"/><path class="cls-2" d="M140.7,53a.47.47,0,1,1-.47-.46.47.47,0,0,1,.47.46Z" transform="translate(-39.97 -42.65)"/><rect class="cls-3" x="81.19" y="33.41" width="12.51" height="19.41"/><path class="cls-2" d="M128.1,77.78a.47.47,0,0,1-.46.47.48.48,0,0,1-.48-.46.47.47,0,0,1,.47-.47h0A.46.46,0,0,1,128.1,77.78Z" transform="translate(-39.97 -42.65)"/><rect class="cls-3" x="81.03" y="8.59" width="10.68" height="15.16"/><path class="cls-2" d="M126.73,52.63a.39.39,0,1,1-.39-.39.39.39,0,0,1,.39.39Z" transform="translate(-39.97 -42.65)"/><rect class="cls-3" x="135.59" y="76.95" width="11.5" height="6.37" transform="translate(-48.07 -26.3) rotate(-6.44)"/><path class="cls-2" d="M141.52,78.18a.4.4,0,1,1-.4-.4h0A.41.41,0,0,1,141.52,78.18Z" transform="translate(-39.97 -42.65)"/><path class="cls-2" d="M132,80.49c0,.06-2,.1-4.39.1s-4.39,0-4.39-.1,2-.09,4.39-.09S132,80.44,132,80.49Z" transform="translate(-39.97 -42.65)"/><path class="cls-2" d="M132,81.88c0,.05-2,.1-4.39.1s-4.39,0-4.39-.1,2-.09,4.39-.09S132,81.83,132,81.88Z" transform="translate(-39.97 -42.65)"/><path class="cls-2" d="M132,83.27s-2,.09-4.39.09-4.39,0-4.39-.09,2-.09,4.39-.09S132,83.22,132,83.27Z" transform="translate(-39.97 -42.65)"/><path class="cls-2" d="M132,84.66s-2,.09-4.39.09-4.39,0-4.39-.09,2-.09,4.39-.09S132,84.61,132,84.66Z" transform="translate(-39.97 -42.65)"/><path class="cls-2" d="M132,86.05s-2,.09-4.39.09-4.39,0-4.39-.09,2-.09,4.39-.09S132,86,132,86.05Z" transform="translate(-39.97 -42.65)"/><path class="cls-2" d="M132,87.44s-2,.09-4.39.09-4.39,0-4.39-.09,2-.09,4.39-.09S132,87.39,132,87.44Z" transform="translate(-39.97 -42.65)"/><path class="cls-2" d="M132,88.83s-2,.09-4.39.09-4.39,0-4.39-.09,2-.09,4.39-.09S132,88.78,132,88.83Z" transform="translate(-39.97 -42.65)"/><path class="cls-2" d="M145.64,79s-1.94.36-4.33.7-4.36.57-4.36.52,1.93-.36,4.33-.7S145.62,79,145.64,79Z" transform="translate(-39.97 -42.65)"/><path class="cls-2" d="M145.8,79.87s-1.93.37-4.33.71-4.35.57-4.36.52,1.93-.36,4.33-.7S145.79,79.82,145.8,79.87Z" transform="translate(-39.97 -42.65)"/><path class="cls-2" d="M146,80.68s-1.93.36-4.33.7-4.35.57-4.36.53,1.93-.37,4.33-.71S146,80.63,146,80.68Z" transform="translate(-39.97 -42.65)"/><path class="cls-2" d="M145.19,55.31s-2.22.09-5,.09-5,0-5-.09,2.22-.09,5-.09S145.19,55.26,145.19,55.31Z" transform="translate(-39.97 -42.65)"/><path class="cls-2" d="M145.19,56.13c0,.06-2.22.1-5,.1s-5,0-5-.1,2.22-.09,5-.09S145.19,56.08,145.19,56.13Z" transform="translate(-39.97 -42.65)"/><path class="cls-2" d="M145.19,57s-2.22.09-5,.09-5,0-5-.09,2.22-.09,5-.09S145.19,56.91,145.19,57Z" transform="translate(-39.97 -42.65)"/><path class="cls-2" d="M145.19,57.79c0,.05-2.22.09-5,.09s-5,0-5-.09,2.22-.1,5-.1S145.19,57.74,145.19,57.79Z" transform="translate(-39.97 -42.65)"/><path class="cls-2" d="M145.19,58.61s-2.22.09-5,.09-5,0-5-.09,2.22-.09,5-.09S145.19,58.56,145.19,58.61Z" transform="translate(-39.97 -42.65)"/><path class="cls-2" d="M145.19,59.43s-2.22.1-5,.1-5-.05-5-.1,2.22-.09,5-.09S145.19,59.39,145.19,59.43Z" transform="translate(-39.97 -42.65)"/><path class="cls-2" d="M145.19,60.26c0,.05-2.22.1-5,.1s-5,0-5-.1,2.22-.09,5-.09S145.19,60.22,145.19,60.26Z" transform="translate(-39.97 -42.65)"/><path class="cls-2" d="M145.19,62.71c0,.06-2.22.1-5,.1s-5,0-5-.1,2.22-.09,5-.09S145.19,62.67,145.19,62.71Z" transform="translate(-39.97 -42.65)"/><path class="cls-2" d="M145.26,63.59s-2.22.09-5,.09-5,0-5-.09,2.22-.1,5-.1S145.26,63.54,145.26,63.59Z" transform="translate(-39.97 -42.65)"/><path class="cls-2" d="M145.33,64.46c0,.05-2.22.09-5,.09s-5,0-5-.09,2.22-.09,5-.09S145.33,64.41,145.33,64.46Z" transform="translate(-39.97 -42.65)"/><path class="cls-2" d="M145.4,65.33s-2.22.1-5,.1-5-.05-5-.1,2.22-.09,5-.09S145.4,65.28,145.4,65.33Z" transform="translate(-39.97 -42.65)"/><path class="cls-2" d="M145.47,66.2c0,.06-2.22.1-5,.1s-5,0-5-.1,2.22-.09,5-.09S145.47,66.15,145.47,66.2Z" transform="translate(-39.97 -42.65)"/><path class="cls-2" d="M145.54,67.08s-2.22.09-5,.09-5,0-5-.09,2.22-.1,5-.1S145.54,67,145.54,67.08Z" transform="translate(-39.97 -42.65)"/><rect class="cls-2" x="50.93" y="3.24" width="4.6" height="110.66"/><rect class="cls-4" x="5.17" y="7.91" width="45.75" height="105.99"/><rect class="cls-2" x="2.22" y="3.24" width="4.24" height="110.66"/><rect class="cls-2" x="2.22" y="3.24" width="53.3" height="4.67"/><path class="cls-4" d="M95.49,45.9a1.33,1.33,0,0,1-.17.18l-.5.47L93.18,48.1c-.64.6-1.21,1.16-1.6,1.58a5.62,5.62,0,0,0-.44.53.6.6,0,0,0-.09.15l0,.07v-.07a.75.75,0,0,1,.08-.18,3.84,3.84,0,0,1,.41-.56A22.39,22.39,0,0,1,93.08,48c.63-.61,1.24-1.14,1.68-1.52l.52-.44A1.1,1.1,0,0,1,95.49,45.9Z" transform="translate(-39.97 -42.65)"/><path class="cls-4" d="M46.44,50.66s-1-1-2.17-2.34-2.09-2.4-2.07-2.42,1,1,2.17,2.33S46.45,50.64,46.44,50.66Z" transform="translate(-39.97 -42.65)"/><path class="cls-2" d="M49.17,113h0a1.54,1.54,0,0,1-1.54-1.54V100.33a1.54,1.54,0,0,1,1.54-1.54h0a1.55,1.55,0,0,1,1.54,1.54v11.08A1.54,1.54,0,0,1,49.17,113Z" transform="translate(-39.97 -42.65)"/><path class="cls-4" d="M49.79,109.47a.52.52,0,0,0-.52-.52.52.52,0,0,0-.53.52.55.55,0,0,0,.3.48v.62a.23.23,0,0,0,.23.24h0a.23.23,0,0,0,.23-.24V110A.54.54,0,0,0,49.79,109.47Z" transform="translate(-39.97 -42.65)"/><rect class="cls-2" x="9.15" y="60.91" width="8.48" height="1.69" rx="0.83"/><path class="cls-4" d="M52.2,105.3a.82.82,0,0,1-.27,0l-.7,0a7.18,7.18,0,0,1-1,0,2.49,2.49,0,0,1-.61-.16,1.1,1.1,0,0,1-.53-.47.86.86,0,0,1,0-.72.55.55,0,0,1,.24-.26l.28-.13a3.12,3.12,0,0,1,1.05-.12l.7,0a1.24,1.24,0,0,1,.27,0,7.71,7.71,0,0,1-1,0,3.48,3.48,0,0,0-1,.15.69.69,0,0,0-.45.33.74.74,0,0,0,0,.6,1,1,0,0,0,.47.41,2.18,2.18,0,0,0,.57.15,7.13,7.13,0,0,0,1,.07A5.14,5.14,0,0,1,52.2,105.3Z" transform="translate(-39.97 -42.65)"/><rect class="cls-5" x="12.45" y="14.23" width="32.83" height="33.99"/></g><g id="freepik--character-3--inject-30"><path class="cls-6" d="M112,54.62s2.32,10.68,4,13.45c.84,1.42,8,9.21,8,9.21L127.07,72l-7.38-6.82L114.91,54.2Z" transform="translate(-39.97 -42.65)"/><path class="cls-6" d="M111.83,51.67c0-.07-.27-.94-.1-1.2a.61.61,0,0,1,.52-.23,1,1,0,0,1,.41-.54,1.1,1.1,0,0,1,.67-.06l.24-.19a.62.62,0,0,1,.6-.15,1.08,1.08,0,0,0,.63.18c.33,0,.82.83,1.08,1.24a1.48,1.48,0,0,1,.26,1.64,19.36,19.36,0,0,1-1.31,2l-2.66.5a1.85,1.85,0,0,1-.53-1.25A5,5,0,0,1,111.83,51.67Z" transform="translate(-39.97 -42.65)"/><path class="cls-7" d="M112.26,50.24a2.62,2.62,0,0,1,.22.48c.12.31.28.73.45,1.21l.07.17a.43.43,0,0,0,0,0,.11.11,0,0,1,0,.08.2.2,0,0,1-.07.09.8.8,0,0,1-.34.11.42.42,0,0,1-.33-.07.64.64,0,0,1-.2-.2,1.31,1.31,0,0,1-.19-.35.83.83,0,0,1,0-.14,3.53,3.53,0,0,0,.29.44.48.48,0,0,0,.45.22.63.63,0,0,0,.29-.1.1.1,0,0,0,0,0v0l-.07-.18c-.17-.47-.31-.9-.42-1.21A3,3,0,0,1,112.26,50.24Z" transform="translate(-39.97 -42.65)"/><path class="cls-7" d="M113.33,49.64a1.73,1.73,0,0,1,.12.43c.07.26.15.64.24,1h0v.05a1.23,1.23,0,0,1,.07.63.54.54,0,0,1-.34.39.55.55,0,0,1-.36,0c-.07,0-.11,0-.11,0h.12a.69.69,0,0,0,.32,0,.46.46,0,0,0,.26-.34,1.22,1.22,0,0,0-.07-.57l0,0h0c-.08-.42-.15-.79-.19-1.07A1.61,1.61,0,0,1,113.33,49.64Z" transform="translate(-39.97 -42.65)"/><path class="cls-7" d="M114.16,49.3a3.75,3.75,0,0,1,0,.67v0c.14.33.32.79.51,1.28l.12.32v0a.89.89,0,0,1-.22.3.5.5,0,0,1-.31.14.38.38,0,0,1-.3-.11.64.64,0,0,1-.14-.22,1.4,1.4,0,0,1-.13-.34c0-.08,0-.13,0-.13a3.11,3.11,0,0,0,.2.44c.07.12.19.29.37.26a.65.65,0,0,0,.45-.39v0l-.13-.32c-.19-.49-.36-.94-.48-1.28v0A4.93,4.93,0,0,1,114.16,49.3Z" transform="translate(-39.97 -42.65)"/><path class="cls-8" d="M109.19,55.8l-1-.21a9,9,0,0,1-1.33-3.37,29.56,29.56,0,0,1-.3-4.2l10-5.37.84,4.84Z" transform="translate(-39.97 -42.65)"/><path class="cls-3" d="M117.93,49.78l0-6.5-.78-.35L106.94,48.5s-.33,4.22,1.48,6.88l.64.14Z" transform="translate(-39.97 -42.65)"/><path class="cls-8" d="M109.19,55.8,118.28,50s-.15-5.71.62-6.74L108,49.49S107,51.23,109.19,55.8Z" transform="translate(-39.97 -42.65)"/><path class="cls-9" d="M117.39,43.1a3.11,3.11,0,0,1-.38.25l-1.07.61c-.9.51-2.15,1.21-3.54,2s-2.65,1.46-3.56,1.94l-1.09.57a3,3,0,0,1-.41.19,3,3,0,0,1,.38-.24l1.07-.61c.91-.52,2.16-1.21,3.54-2s2.65-1.45,3.57-1.94l1.09-.58Z" transform="translate(-39.97 -42.65)"/><path class="cls-9" d="M117.84,43.31a3,3,0,0,1-.38.24l-1.07.61c-.9.53-2.16,1.21-3.55,2l-3.56,1.93-1.07.58a3,3,0,0,1-.41.19,3,3,0,0,1,.38-.24l1.07-.61c.9-.52,2.15-1.21,3.54-2s2.65-1.45,3.56-1.94l1.09-.58A2.93,2.93,0,0,1,117.84,43.31Z" transform="translate(-39.97 -42.65)"/><path class="cls-6" d="M114.82,54.34s1.31-1.92,1.31-2a8.85,8.85,0,0,0-.88-2.45c-.37-.36-.86-.79-.86-.79s-.52.14-.26.91.6,1.57.6,1.57l-.44.66a2.16,2.16,0,0,0-1.58,2.12" transform="translate(-39.97 -42.65)"/><path class="cls-7" d="M112.72,54.37a1.48,1.48,0,0,1,0-.21,1.93,1.93,0,0,1,0-.24c0-.11,0-.22.07-.33a2,2,0,0,1,.49-.77,2.72,2.72,0,0,1,1-.61l0,0,.44-.65v.05c-.16-.37-.32-.76-.47-1.17-.08-.21-.15-.43-.21-.65a.73.73,0,0,1,0-.36.5.5,0,0,1,.22-.31l.12-.06h0l0,0,.46.43.23.21a1.14,1.14,0,0,1,.22.22,2.73,2.73,0,0,1,.27.54c.07.18.13.36.19.53.11.35.21.68.29,1l.06.24v.1l0,0-.06.1-.24.37c-.31.46-.57.83-.75,1.08l-.21.29-.08.1a.24.24,0,0,1,.06-.11l.19-.3.72-1.1.24-.37,0-.1h0v0l-.06-.24c-.08-.31-.18-.65-.29-1a5.55,5.55,0,0,0-.2-.52,2.11,2.11,0,0,0-.26-.52,1,1,0,0,0-.21-.21l-.22-.21-.47-.42h0l-.09,0a.52.52,0,0,0-.18.56,4.21,4.21,0,0,0,.2.63q.22.61.45,1.17l0,0,0,0-.45.66v0h0a2.52,2.52,0,0,0-1,.57,1.81,1.81,0,0,0-.49.73A3.27,3.27,0,0,0,112.72,54.37Z" transform="translate(-39.97 -42.65)"/><path class="cls-10" d="M116.11,56.93c1.46,2.16,2,5,3.62,7,.77,1,0,.81.81,1.55,1.66,1.45,4.62,3.93,6,5.37.44.44,1.94-.46,2.69.73.29.45-1.79,1.44-2,1.94-.89,2.26-.34,5.09-1.23,7.35a93.55,93.55,0,0,1-7.74-7.55,20.27,20.27,0,0,1-4.45-7.53,55.27,55.27,0,0,1-1.71-6.73l.33-.69-.22-1,3.4-1.39Z" transform="translate(-39.97 -42.65)"/><path class="cls-8" d="M151.4,75.23a9.75,9.75,0,0,0-3.8-2.8c-1.12-.42-7.07-1.12-7.77.66l-.27,14.06a20.24,20.24,0,0,0-.85,4.52A6.73,6.73,0,0,0,139.9,96a5.54,5.54,0,0,0,7.69,1.07,7.91,7.91,0,0,0,2.5-4.71,75.21,75.21,0,0,0,1.38-10c.15-1.66.3-3.33.32-5A4.24,4.24,0,0,0,151.4,75.23Z" transform="translate(-39.97 -42.65)"/><path class="cls-8" d="M149.56,120.34l5.76-.93s2.88,5.54,4,5.47l-1.39-11.21-9,1.07Z" transform="translate(-39.97 -42.65)"/><path class="cls-2" d="M154.4,116a.46.46,0,0,1,.49-.38.44.44,0,0,1,.38.47.48.48,0,0,1-.53.4.45.45,0,0,1-.34-.54" transform="translate(-39.97 -42.65)"/><path class="cls-9" d="M157.88,113.67l-.91.14,1.67,10.7s.28.47.63.37Z" transform="translate(-39.97 -42.65)"/><path class="cls-3" d="M155.29,119.6c.05,0,0-.28.18-.58s.36-.46.33-.51-.33.08-.5.43S155.24,119.63,155.29,119.6Z" transform="translate(-39.97 -42.65)"/><path class="cls-3" d="M155.92,120.72c.05,0,.12-.25.32-.46s.45-.3.44-.35-.32,0-.57.22S155.87,120.72,155.92,120.72Z" transform="translate(-39.97 -42.65)"/><path class="cls-3" d="M157.42,121.2s-.28-.09-.56.09-.37.45-.32.46.19-.16.42-.3S157.42,121.26,157.42,121.2Z" transform="translate(-39.97 -42.65)"/><path class="cls-3" d="M154,119.67c.05,0-.06-.26-.07-.59s.05-.56,0-.58-.22.23-.2.6S153.91,119.7,154,119.67Z" transform="translate(-39.97 -42.65)"/><path class="cls-8" d="M140.64,121.92l5.76-.92s2.88,5.53,3.95,5.46L149,115.25l-9,1.08Z" transform="translate(-39.97 -42.65)"/><path class="cls-2" d="M145.47,117.59a.47.47,0,0,1,.49-.38.44.44,0,0,1,.38.48.49.49,0,0,1-.53.4.47.47,0,0,1-.33-.55" transform="translate(-39.97 -42.65)"/><path class="cls-9" d="M148.94,115.25l-.9.15,1.67,10.69s.28.47.63.37Z" transform="translate(-39.97 -42.65)"/><path class="cls-3" d="M146.35,121.19c.06,0,.05-.29.19-.58s.36-.46.33-.52-.34.07-.5.43A.68.68,0,0,0,146.35,121.19Z" transform="translate(-39.97 -42.65)"/><path class="cls-3" d="M147,122.3s.11-.24.32-.46.45-.3.44-.35-.32,0-.58.22S147,122.31,147,122.3Z" transform="translate(-39.97 -42.65)"/><path class="cls-3" d="M148.48,122.79c0-.05-.28-.09-.56.09s-.37.45-.32.46.18-.16.42-.3S148.48,122.85,148.48,122.79Z" transform="translate(-39.97 -42.65)"/><path class="cls-3" d="M145,121.25s-.06-.26-.07-.58a5,5,0,0,0,0-.59s-.22.23-.2.6S145,121.28,145,121.25Z" transform="translate(-39.97 -42.65)"/><path class="cls-9" d="M125.69,97.43s-3.61,10.33-4.17,12.4-2.1,7.52-.49,10,5,2.16,6.57,1.62,13-7.26,13-7.26l-.19-3.79-10.13,1.41,2.18-9.86.33-5.7Z" transform="translate(-39.97 -42.65)"/><path class="cls-9" d="M130.56,103.33l.82,1s-2.37,10.39-2.27,12.61c.09,1.83,0,4.61,3.12,5.84a6.8,6.8,0,0,0,3.79.3l4.43-.58,12.64-2-.67-6.66-13.5.29,2.42-6.84a30.71,30.71,0,0,0,1.73-5.52c.37-2.3,1.05-4.55.88-4.61-.62-.2-1.83-2.4-1.83-2.4L131,94.56l-1,6.18Z" transform="translate(-39.97 -42.65)"/><path class="cls-8" d="M141.34,107.27c0,.14-.07.27-.11.41l-.36,1.1c-.3.93-.73,2.21-1.21,3.62-.25.7-.48,1.37-.69,2s-.44,1.15-.64,1.59-.38.8-.52,1a1.65,1.65,0,0,1-.22.36,2.59,2.59,0,0,1,.17-.38c.12-.25.29-.61.48-1.05s.41-1,.61-1.6.43-1.29.67-2c.48-1.41.93-2.68,1.26-3.61l.39-1.08A1.86,1.86,0,0,1,141.34,107.27Z" transform="translate(-39.97 -42.65)"/><path class="cls-8" d="M129.15,117.48a2.78,2.78,0,0,1-.33.51,14.13,14.13,0,0,1-.95,1.1,12.45,12.45,0,0,1-1.08,1,2,2,0,0,1-.49.34s.68-.6,1.47-1.41S129.11,117.46,129.15,117.48Z" transform="translate(-39.97 -42.65)"/><path class="cls-8" d="M130.41,121.54a.44.44,0,0,1-.15-.12,2.18,2.18,0,0,1-.34-.4,4.81,4.81,0,0,1-.67-1.83c0-.21-.06-.42-.1-.64s-.06-.46-.07-.7,0-.5,0-.75,0-.53,0-.8a27.73,27.73,0,0,1,.43-3.52c.46-2.47,1-4.68,1.37-6.28.18-.79.33-1.44.43-1.9l.12-.53a.84.84,0,0,1,.05-.17,1.1,1.1,0,0,1,0,.18l-.1.52c-.08.45-.21,1.11-.38,1.91-.34,1.61-.88,3.82-1.33,6.28a26,26,0,0,0-.44,3.5c0,.26,0,.53,0,.79a5.94,5.94,0,0,0,0,.74c0,.24,0,.47.06.7s.05.43.08.64A5.06,5.06,0,0,0,130,121,3.14,3.14,0,0,0,130.41,121.54Z" transform="translate(-39.97 -42.65)"/><path class="cls-8" d="M152.42,113.82h-.53l-1.43,0-4.71.14c-1.85.06-3.52.1-4.73.1h-2a.29.29,0,0,1,.13,0l.39,0,1.43,0,4.73-.14c1.83-.06,3.51-.09,4.72-.1h1.95Z" transform="translate(-39.97 -42.65)"/><path class="cls-8" d="M131,99.86s.06.82.2,1.83.33,1.81.29,1.82a1.87,1.87,0,0,1-.17-.52,9.82,9.82,0,0,1-.26-1.29,9.51,9.51,0,0,1-.1-1.31A1.87,1.87,0,0,1,131,99.86Z" transform="translate(-39.97 -42.65)"/><path class="cls-10" d="M143.38,65.59a4,4,0,0,0-2.88-1.51,8.43,8.43,0,0,0-3.3.48,19.79,19.79,0,0,0-7.79,4.7,2.91,2.91,0,0,0-.92,1.38,1.09,1.09,0,0,0,.74,1.31l7,2.44a18.53,18.53,0,0,0,3.69-.65,6.13,6.13,0,0,0,3.1-2,5.76,5.76,0,0,0,1.09-3.45A4.37,4.37,0,0,0,143.38,65.59Z" transform="translate(-39.97 -42.65)"/><path class="cls-10" d="M130.72,70.78c-.2.07-4.55,1.23-5,2s-1.28,14.92-1.17,15.82c.06.46.29,1.49.51,2.4a3,3,0,0,1-.58,2.57c-.62,1.06-1.06,1.49-.94,2.76a23.61,23.61,0,0,0,.83,2.29l-.44,1.44s4.29.07,11.22.29,8.45.48,8.45.48l0-1.57a17.74,17.74,0,0,0,1.22-4.47c.23-1.69-2.29-7-2.29-7l2.23-12.65.21-2A7.16,7.16,0,0,0,141.68,71C139.5,70.25,130.72,70.78,130.72,70.78Z" transform="translate(-39.97 -42.65)"/><g class="cls-11"><path class="cls-12" d="M134,84.09c.49,1.06,1.09,2.23,2.21,2.57a8.75,8.75,0,0,0,1.63.16,9.14,9.14,0,0,1,2.66.92,22.26,22.26,0,0,0,4.35,1.39,6,6,0,0,0,2.56.11,2.48,2.48,0,0,0,1.86-1.62Z" transform="translate(-39.97 -42.65)"/></g><path class="cls-9" d="M145.34,73.6a10.7,10.7,0,0,0-1.51-1.5,10.28,10.28,0,0,0-1.86-1,2.64,2.64,0,0,1,.61.17,5.82,5.82,0,0,1,1.33.75A5.58,5.58,0,0,1,145,73.06,2.15,2.15,0,0,1,145.34,73.6Z" transform="translate(-39.97 -42.65)"/><path class="cls-8" d="M135.84,81.52l4.51-7.73,2-2.64a4,4,0,0,0-3.14-.6,20.68,20.68,0,0,0-1.74,2.56c-2,3.71-3.78,7.67-3.78,7.67l.24,3,11,12.6.81-3.14-4.2-3.14s-4.94-5-4.88-5.24S135.84,81.52,135.84,81.52Z" transform="translate(-39.97 -42.65)"/><path class="cls-9" d="M125.48,75.22s-.1,1.8-.3,4-.41,4-.44,4,.1-1.8.3-4S125.44,75.22,125.48,75.22Z" transform="translate(-39.97 -42.65)"/><path class="cls-9" d="M130.87,74.88a2.92,2.92,0,0,1-.44-.42A10.53,10.53,0,0,1,128.78,72a2.35,2.35,0,0,1-.23-.57s.44.82,1.08,1.76S130.9,74.84,130.87,74.88Z" transform="translate(-39.97 -42.65)"/><path class="cls-9" d="M139.29,70.29a2.56,2.56,0,0,1-.2.26,8,8,0,0,1-.63.67,18.08,18.08,0,0,1-2.36,1.91,18.42,18.42,0,0,1-2.63,1.5,8.86,8.86,0,0,1-.85.34,2,2,0,0,1-.33.09,1.73,1.73,0,0,1,.31-.14,8.35,8.35,0,0,0,.83-.38A20.59,20.59,0,0,0,136,73a21.07,21.07,0,0,0,2.37-1.86c.28-.26.5-.48.65-.63A1.31,1.31,0,0,1,139.29,70.29Z" transform="translate(-39.97 -42.65)"/><path class="cls-9" d="M128.38,89.42a.81.81,0,0,1,0,.22q0,.3-.09.6a6.59,6.59,0,0,1-2,3.45c-.16.13-.31.26-.48.38a.52.52,0,0,1-.19.11s.24-.21.6-.56a7.36,7.36,0,0,0,2-3.41C128.32,89.73,128.36,89.41,128.38,89.42Z" transform="translate(-39.97 -42.65)"/><path class="cls-9" d="M138.94,94.28a2.89,2.89,0,0,1-.5-.49,6,6,0,0,1-1-1.37,3.1,3.1,0,0,1-.33-1.66,2.11,2.11,0,0,1,.12-.51.41.41,0,0,1,.09-.17,5.35,5.35,0,0,0-.11.68,3.28,3.28,0,0,0,.35,1.6,7.51,7.51,0,0,0,.93,1.37A3.71,3.71,0,0,1,138.94,94.28Z" transform="translate(-39.97 -42.65)"/><path class="cls-9" d="M142.15,98.94H142l-.5,0-1.81-.15c-1.53-.13-3.65-.27-6-.35s-4.47-.07-6,0l-1.82,0h-.5a.48.48,0,0,1-.17,0l.17,0,.5,0,1.82-.09c1.53,0,3.66-.07,6,0s4.46.24,6,.39c.76.08,1.38.15,1.81.21l.49.06Z" transform="translate(-39.97 -42.65)"/><path class="cls-9" d="M135.91,89s-.39-.09-1-.22a17.1,17.1,0,0,0-2.47-.36,17.39,17.39,0,0,0-2.5,0c-.64,0-1,.1-1,.08l.26-.07.75-.11a14.15,14.15,0,0,1,2.52,0,13.77,13.77,0,0,1,2.48.39c.32.08.56.16.73.22A1,1,0,0,1,135.91,89Z" transform="translate(-39.97 -42.65)"/><path class="cls-10" d="M145,73.13s4.52,5.54,5.21,6.8,2,4.26,1.65,5.58a4.05,4.05,0,0,1-2.62,2.91c-1.34.39-5.76-.7-5.76-.7a34.48,34.48,0,0,1,.57-4.19c.15.18,1.17-.32,1.17-.32l-2.47-2.36-.19-4Z" transform="translate(-39.97 -42.65)"/><path class="cls-9" d="M149.35,83.27a9.82,9.82,0,0,0-2.16-.26,10.56,10.56,0,0,0-2.16.34,2.22,2.22,0,0,1,.6-.24,5.87,5.87,0,0,1,3.11-.06A2.12,2.12,0,0,1,149.35,83.27Z" transform="translate(-39.97 -42.65)"/><path class="cls-9" d="M144.69,76.06a.76.76,0,0,1,0,.26c0,.17,0,.41-.09.7-.09.6-.23,1.42-.4,2.32s-.36,1.71-.5,2.29c-.06.29-.12.52-.17.69a.73.73,0,0,1-.08.25,1.09,1.09,0,0,1,0-.26c0-.2.08-.43.13-.7.12-.63.28-1.42.45-2.3l.44-2.3c.06-.27.1-.51.14-.7A1,1,0,0,1,144.69,76.06Z" transform="translate(-39.97 -42.65)"/><g class="cls-11"><path class="cls-12" d="M140.55,69.8a.54.54,0,0,0-.52-.07,1.4,1.4,0,0,0-.47.32,19.64,19.64,0,0,1-5.7,4.35h0a15.85,15.85,0,0,0,6.47-3.55,1.54,1.54,0,0,0,.34-.49A.53.53,0,0,0,140.55,69.8Z" transform="translate(-39.97 -42.65)"/></g><path class="cls-6" d="M138.05,82.43a18.34,18.34,0,0,0-.54-2.17,14.56,14.56,0,0,0-3-.72s-1.52,0-1.49.68.33.75.33.75-.5.33-.43.71.22.45.22.45a.48.48,0,0,0-.28.54,1.6,1.6,0,0,0,.44.67.47.47,0,0,0,.11.58,1.79,1.79,0,0,0,.85.39s1.23,1.48,1.75,1.52,2.18,0,2.18,0l5.3,1.72.45-3.74Z" transform="translate(-39.97 -42.65)"/><path class="cls-7" d="M134.79,80.92a2,2,0,0,1-.73.1,2,2,0,0,1-.74,0A4.27,4.27,0,0,1,134.79,80.92Z" transform="translate(-39.97 -42.65)"/><path class="cls-7" d="M134.44,82.14a1.4,1.4,0,0,1-.61.09,1.58,1.58,0,0,1-.61,0,1.28,1.28,0,0,1,.61-.09A1.55,1.55,0,0,1,134.44,82.14Z" transform="translate(-39.97 -42.65)"/><path class="cls-7" d="M134.51,83.17a1.21,1.21,0,0,1-.57.13,1.14,1.14,0,0,1-.58,0,1.4,1.4,0,0,1,.57-.13A1.42,1.42,0,0,1,134.51,83.17Z" transform="translate(-39.97 -42.65)"/><path class="cls-7" d="M134.72,82.82s-.05,0-.07-.11a.41.41,0,0,1,.07-.3.48.48,0,0,1,.24-.18c.08,0,.13,0,.13,0s-.15.09-.26.25S134.75,82.81,134.72,82.82Z" transform="translate(-39.97 -42.65)"/><path class="cls-7" d="M135.41,81.84s0,0-.06-.09a.34.34,0,0,1,.05-.26.39.39,0,0,1,.2-.16.16.16,0,0,1,.11,0,1.4,1.4,0,0,0-.19.22C135.44,81.68,135.45,81.83,135.41,81.84Z" transform="translate(-39.97 -42.65)"/><path class="cls-7" d="M136,80.53s-.08-.13,0-.27.24-.15.25-.12-.08.1-.14.2S136,80.53,136,80.53Z" transform="translate(-39.97 -42.65)"/><path class="cls-7" d="M138,83.6a1.37,1.37,0,0,1,0-.57,1.39,1.39,0,0,1,.09-.57,1.26,1.26,0,0,1,0,.58C138.05,83.35,138,83.61,138,83.6Z" transform="translate(-39.97 -42.65)"/><g class="cls-11"><path class="cls-12" d="M139.26,65.59a.85.85,0,0,0-.52,0,6.76,6.76,0,0,0-1.4.39,1,1,0,0,0-.59.46,1.2,1.2,0,0,0-.07.53l.06,3.32.32-.36a13.56,13.56,0,0,0,2.24-3,1.6,1.6,0,0,0,.24-.66A.62.62,0,0,0,139.26,65.59Z" transform="translate(-39.97 -42.65)"/></g><path class="cls-9" d="M136.66,66.36a.59.59,0,0,1,.11-.1,3.6,3.6,0,0,1,1.87-.77,1.69,1.69,0,0,1,.55,0,.53.53,0,0,1,.44.4,1.77,1.77,0,0,1-.4,1.21,21.72,21.72,0,0,1-5.46,6c-.54.4-1,.71-1.31.91l-.37.22a.61.61,0,0,1-.14.07l.12-.09.36-.25c.31-.21.76-.52,1.29-.94a23.54,23.54,0,0,0,3.74-3.66A22.76,22.76,0,0,0,139.12,67a3.86,3.86,0,0,0,.32-.56.9.9,0,0,0,.09-.56.43.43,0,0,0-.36-.32,1.46,1.46,0,0,0-.51,0,4,4,0,0,0-1.5.46C136.83,66.24,136.67,66.37,136.66,66.36Z" transform="translate(-39.97 -42.65)"/><path class="cls-6" d="M132.16,56.49l-.26,0a5.05,5.05,0,0,0-4.6,5.07c0,2.45,0,4.66.15,6a3.41,3.41,0,0,0,3,3s.07,1.09.11,1.89l1,2.2a35.9,35.9,0,0,0,5.11-4.37l-.11-8.66C136.63,58.76,135,56.41,132.16,56.49Z" transform="translate(-39.97 -42.65)"/><path class="cls-7" d="M130.49,70.51a6.52,6.52,0,0,0,3.42-1.35,3.38,3.38,0,0,1-3.38,2.1Z" transform="translate(-39.97 -42.65)"/><path class="cls-9" d="M128.65,63.78a.39.39,0,0,0,.41.35.36.36,0,0,0,.35-.38h0a.37.37,0,0,0-.4-.35A.36.36,0,0,0,128.65,63.78Z" transform="translate(-39.97 -42.65)"/><path class="cls-9" d="M128,62.72s.32-.2.74-.23.73.14.78.09,0-.11-.18-.2a1,1,0,0,0-.62-.13,1,1,0,0,0-.59.25C128,62.6,128,62.7,128,62.72Z" transform="translate(-39.97 -42.65)"/><path class="cls-9" d="M132.38,63.6a.38.38,0,0,0,.4.36.37.37,0,0,0,.37-.38h0a.39.39,0,0,0-.4-.36.37.37,0,0,0-.37.37Z" transform="translate(-39.97 -42.65)"/><path class="cls-9" d="M132.05,62.46s.32-.2.74-.23.74.14.78.08,0-.11-.18-.19a1,1,0,0,0-.62-.14,1.1,1.1,0,0,0-.59.27C132.06,62.34,132,62.43,132.05,62.46Z" transform="translate(-39.97 -42.65)"/><path class="cls-9" d="M130.84,65.77a2.57,2.57,0,0,0-.68-.06c-.11,0-.21,0-.23-.08a.5.5,0,0,1,0-.32c.08-.27.15-.55.24-.84a15.84,15.84,0,0,0,.52-2.17,18.5,18.5,0,0,0-.69,2.13c-.07.29-.15.57-.22.83a.56.56,0,0,0,0,.42.22.22,0,0,0,.19.14.54.54,0,0,0,.18,0A2.15,2.15,0,0,0,130.84,65.77Z" transform="translate(-39.97 -42.65)"/><path class="cls-9" d="M131.8,61.17c.07.1.46,0,.95-.1s.9,0,.94-.13-.07-.14-.26-.21a1.69,1.69,0,0,0-.74-.08,1.61,1.61,0,0,0-.7.26C131.84,61,131.77,61.12,131.8,61.17Z" transform="translate(-39.97 -42.65)"/><path class="cls-9" d="M127.84,61.5c.09.09.42,0,.83-.07s.75,0,.83-.09,0-.14-.19-.22a1.33,1.33,0,0,0-.68-.12,1.35,1.35,0,0,0-.65.24C127.84,61.36,127.81,61.46,127.84,61.5Z" transform="translate(-39.97 -42.65)"/><path class="cls-6" d="M136.59,63.59s1.81-.71,1.91,1.14a1.39,1.39,0,0,1-1.78,1.52S136.59,63.59,136.59,63.59Z" transform="translate(-39.97 -42.65)"/><path class="cls-7" d="M137.24,65.52l.09,0a.33.33,0,0,0,.24,0,.76.76,0,0,0,.33-.73,1,1,0,0,0-.11-.46.37.37,0,0,0-.26-.23.16.16,0,0,0-.19.1c0,.05,0,.08,0,.09s0,0,0-.11a.29.29,0,0,1,.07-.12.28.28,0,0,1,.18-.06.48.48,0,0,1,.35.27,1.25,1.25,0,0,1,.14.5.86.86,0,0,1-.43.83.39.39,0,0,1-.3,0A.3.3,0,0,1,137.24,65.52Z" transform="translate(-39.97 -42.65)"/><path class="cls-9" d="M123.45,59.32a.42.42,0,0,1,.19-.26,1.36,1.36,0,0,1,.68-.16,3.8,3.8,0,0,0,1.67-.52,2,2,0,0,1-.52-.32,1.14,1.14,0,0,1-.4-1.13.26.26,0,0,1,.13-.19c.12,0,.23.07.32.16a1,1,0,0,0,1,.34,1.61,1.61,0,0,0,.7-.26l0,0,.26-.3h0a6.17,6.17,0,0,1,1.83-1.53,6.37,6.37,0,0,1,3.34-.46,2.55,2.55,0,0,1,2,1.86,1.94,1.94,0,0,1,2-.29h0a2.44,2.44,0,0,1,1.44,1.66l0,.12a2.8,2.8,0,0,0,1,.88c.07,0,.15.08.16.17s0,.14-.11.19a1.31,1.31,0,0,1-.56.26,2.87,2.87,0,0,0,.26.49c.09.13.19.29.13.44a.32.32,0,0,1-.31.16.91.91,0,0,1-.34-.14l.26.56a1.71,1.71,0,0,1-.78,0c-.11.7-.15,2-.3,2.44a3.21,3.21,0,0,0-.86.09c-.31.12-.16.68-.58.54-.22-.06-.59-.85-.68-1.06a10.57,10.57,0,0,1-.71-4.45,3.25,3.25,0,0,0-1.1-.69l0,0a3.11,3.11,0,0,0-2.34,0,5.11,5.11,0,0,0-1.22,1.39,3.9,3.9,0,0,1-2.78,1.56c-.06.82,0,2.16,0,2.92l-.74-1.49h0a2.2,2.2,0,0,1-.15-.26l0,0h0a2.86,2.86,0,0,0-.24-.42h0a.48.48,0,0,1-.73-.6.84.84,0,0,1,.22-.24.75.75,0,0,1-.71.22.59.59,0,0,1-.45-.56.53.53,0,0,1,.26-.42,1.63,1.63,0,0,1-1-.16A.43.43,0,0,1,123.45,59.32Z" transform="translate(-39.97 -42.65)"/><path class="cls-8" d="M133.83,56.89a1.68,1.68,0,0,1,.29.24,1.9,1.9,0,0,1,.47.87,3.11,3.11,0,0,1,.11.68c0,.27,0,.53,0,.8a6.56,6.56,0,0,0,0,.89,3.55,3.55,0,0,0,.09.47,1,1,0,0,0,.22.44.43.43,0,0,0,.39.11.67.67,0,0,0,.33-.22,1.44,1.44,0,0,0,.22-.7h-.06a2.9,2.9,0,0,0,.36.55.89.89,0,0,0,.55.26.52.52,0,0,0,.27-.07.39.39,0,0,0,.18-.2.49.49,0,0,0,.05-.24.35.35,0,0,0-.1-.2l0,0a1.82,1.82,0,0,0,.61.41l.18.06h.07L138,61l-.17-.06a1.78,1.78,0,0,1-.59-.41l0,0a.4.4,0,0,1-.1.6.47.47,0,0,1-.26,0,.79.79,0,0,1-.51-.24,2.22,2.22,0,0,1-.34-.52l-.05-.09v.1a1.32,1.32,0,0,1-.21.67.6.6,0,0,1-.3.19.34.34,0,0,1-.33-.09.93.93,0,0,1-.2-.41,3.73,3.73,0,0,1-.09-.46,6.47,6.47,0,0,1,0-.88c0-.28,0-.55,0-.8a2.78,2.78,0,0,0-.12-.7,1.93,1.93,0,0,0-.49-.88A1.19,1.19,0,0,0,133.83,56.89Z" transform="translate(-39.97 -42.65)"/><path class="cls-8" d="M125.62,60h0l.07,0,.12.06.17.08a2.33,2.33,0,0,0,1.17.14,3.07,3.07,0,0,0,1.6-.69A5.62,5.62,0,0,0,130.08,58c.17-.33.31-.68.47-1a3.74,3.74,0,0,1,.56-.86,1.88,1.88,0,0,1,.75-.52,1.14,1.14,0,0,1,.41-.07,1.2,1.2,0,0,1,.38.05,1.61,1.61,0,0,1,.58.3,1.48,1.48,0,0,1,.33.38,2,2,0,0,1,.17.4v0l0-.08a1.34,1.34,0,0,0-.12-.3,1.55,1.55,0,0,0-.33-.39,1.42,1.42,0,0,0-.6-.33,1.27,1.27,0,0,0-.39-.06,1.55,1.55,0,0,0-.43.07,1.9,1.9,0,0,0-.78.53,3.63,3.63,0,0,0-.57.87c-.16.32-.3.66-.48,1a5.28,5.28,0,0,1-1.29,1.68,3,3,0,0,1-1.57.7,2.25,2.25,0,0,1-1.15-.12Z" transform="translate(-39.97 -42.65)"/><path class="cls-8" d="M125.3,58.84a.21.21,0,0,0,.1.06,1.6,1.6,0,0,0,.3.13,2.42,2.42,0,0,0,.46.13,3.81,3.81,0,0,0,.59,0,2.89,2.89,0,0,0,.58-.08,2.44,2.44,0,0,0,.46-.14,2,2,0,0,0,.29-.15l.09-.06-.4.17a3.23,3.23,0,0,1-1,.19,2.79,2.79,0,0,1-.58,0,3.43,3.43,0,0,1-.46-.11C125.46,58.91,125.31,58.83,125.3,58.84Z" transform="translate(-39.97 -42.65)"/><path class="cls-7" d="M132.65,66a.14.14,0,0,0-.08-.09.17.17,0,0,0-.15,0l-1,.58-.16.08a1,1,0,0,0,.72.67.74.74,0,0,0,.82-.47A1.06,1.06,0,0,0,132.65,66Z" transform="translate(-39.97 -42.65)"/><path class="cls-9" d="M132.11,67.32a1.39,1.39,0,0,0,.41-.23.77.77,0,0,0,.12-1,.69.69,0,0,0-.11-.13h.08a8.29,8.29,0,0,1-1.35.63,10.33,10.33,0,0,1,1.29-.75l0,0,0,0a.65.65,0,0,1,.13.16.88.88,0,0,1,.13.67.85.85,0,0,1-.3.47A.59.59,0,0,1,132.11,67.32Z" transform="translate(-39.97 -42.65)"/><g class="cls-11"><path class="cls-12" d="M124.77,100.06a6.05,6.05,0,0,0,3.07,1.11,24.4,24.4,0,0,0,3.31-.08,86.83,86.83,0,0,1,11.95.45l.16-.77-7.57-.42Z" transform="translate(-39.97 -42.65)"/></g><g class="cls-11"><path class="cls-12" d="M127.19,96.32l.07.08a8.65,8.65,0,0,0,3.9.92,16.14,16.14,0,0,0,3.26,0,5.43,5.43,0,0,0,3-1.24A24,24,0,0,1,127.19,96.32Z" transform="translate(-39.97 -42.65)"/></g></g><g id="freepik--character-1--inject-30"><path class="cls-6" d="M80.33,54.29s-1.42,10.64-2.81,13.48c-.71,1.47-7.09,9.67-7.09,9.67l-3.5-5,6.69-7.27L77.41,54.1Z" transform="translate(-39.97 -42.65)"/><path class="cls-6" d="M80.22,51.39c0-.08.2-1,0-1.19a.61.61,0,0,0-.54-.19,1,1,0,0,0-.43-.49,1.06,1.06,0,0,0-.66,0l-.25-.17a.59.59,0,0,0-.6-.1,1.1,1.1,0,0,1-.61.22c-.32,0-.73.89-.95,1.31a1.46,1.46,0,0,0-.13,1.62,19.74,19.74,0,0,0,1.45,1.83l2.66.28a1.86,1.86,0,0,0,.41-1.27A4.72,4.72,0,0,0,80.22,51.39Z" transform="translate(-39.97 -42.65)"/><path class="cls-7" d="M79.69,50a2.84,2.84,0,0,0-.17.49c-.1.31-.22.74-.35,1.22l0,.17a.13.13,0,0,0,0,.06.17.17,0,0,0,0,.07l.08.08a.73.73,0,0,0,.35.09.43.43,0,0,0,.31-.1.76.76,0,0,0,.19-.21,1.14,1.14,0,0,0,.15-.36c0-.08,0-.14,0-.14a1.82,1.82,0,0,1-.24.46.47.47,0,0,1-.42.26.78.78,0,0,1-.3-.07l0-.05v0a.64.64,0,0,1,0-.17c.13-.48.24-.91.32-1.22A2.36,2.36,0,0,0,79.69,50Z" transform="translate(-39.97 -42.65)"/><path class="cls-7" d="M78.6,49.52a1.57,1.57,0,0,0-.09.43c0,.26-.1.64-.15,1h0a.09.09,0,0,1,0,0,1.3,1.3,0,0,0,0,.62.52.52,0,0,0,.37.36.57.57,0,0,0,.34,0,.25.25,0,0,0,.11,0s0,0-.12,0a.65.65,0,0,1-.31,0,.47.47,0,0,1-.29-.32,1.22,1.22,0,0,1,0-.57v0h0c0-.42.09-.79.11-1.05A1.78,1.78,0,0,0,78.6,49.52Z" transform="translate(-39.97 -42.65)"/><path class="cls-7" d="M77.75,49.25a3.67,3.67,0,0,0,0,.66v0c-.11.33-.26.78-.39,1.29,0,.11-.07.21-.1.32v0a.92.92,0,0,0,.24.28.54.54,0,0,0,.32.11.35.35,0,0,0,.28-.14.61.61,0,0,0,.13-.22,1,1,0,0,0,.09-.34V51.1a2.42,2.42,0,0,1-.16.44c-.06.13-.16.3-.34.3a.68.68,0,0,1-.47-.35v0l.1-.32c.15-.5.28-1,.37-1.31v0A3.5,3.5,0,0,0,77.75,49.25Z" transform="translate(-39.97 -42.65)"/><path class="cls-6" d="M77.51,54.23s-1.44-1.77-1.45-1.83a8.72,8.72,0,0,1,.67-2.46c.33-.38.78-.84.78-.84s.53.09.32.87-.47,1.57-.47,1.57l.49.62a2.11,2.11,0,0,1,1.72,1.94" transform="translate(-39.97 -42.65)"/><path class="cls-7" d="M79.57,54.1v-.21a2,2,0,0,0,0-.24,1.58,1.58,0,0,0-.09-.31,1.92,1.92,0,0,0-.55-.71,2.7,2.7,0,0,0-1-.53l0,0-.49-.61v0c.12-.37.25-.76.36-1.18a4.74,4.74,0,0,0,.16-.65.83.83,0,0,0,0-.35.46.46,0,0,0-.24-.29l-.12,0h0l0,0-.42.46-.21.22a2.31,2.31,0,0,0-.2.24,2.63,2.63,0,0,0-.22.55,5.36,5.36,0,0,0-.14.54c-.09.35-.16.69-.21,1a1,1,0,0,1,0,.24v.09l0,0,.06.1.26.34c.35.43.63.77.83,1l.23.26.08.09a.59.59,0,0,0-.07-.1l-.21-.28-.78-1-.27-.34-.06-.09h0v-.06l0-.23c0-.32.12-.65.21-1,0-.18.09-.36.14-.53a2.62,2.62,0,0,1,.22-.52,2,2,0,0,1,.19-.22l.2-.22.42-.45h0l.09,0a.51.51,0,0,1,.22.52,4.75,4.75,0,0,1-.14.63c-.12.41-.24.81-.36,1.18v0h0l.49.61h0a2.69,2.69,0,0,1,1,.48,2.06,2.06,0,0,1,.53.68A3.16,3.16,0,0,1,79.57,54.1Z" transform="translate(-39.97 -42.65)"/><polygon class="cls-6" points="19.78 83.25 11.03 91.91 14.08 95.05 23.14 88.33 19.78 83.25"/><path class="cls-8" d="M54.51,137.66l.44-.34a8.09,8.09,0,0,1-2.59-4.48l-3.11,1.64,5.23,9.27C55.34,143.23,54.51,137.66,54.51,137.66Z" transform="translate(-39.97 -42.65)"/><path class="cls-2" d="M49.25,134.48l.76-.4,4.73,9.06s0,.51-.26.61Z" transform="translate(-39.97 -42.65)"/><path class="cls-9" d="M54.45,137.53c-.05,0-.2-.19-.47-.34s-.53-.17-.54-.22.3-.12.62.07S54.49,137.52,54.45,137.53Z" transform="translate(-39.97 -42.65)"/><path class="cls-2" d="M51.59,135a.29.29,0,0,1-.38-.12.26.26,0,0,1,.09-.36h0a.29.29,0,0,1,.38.12.26.26,0,0,1-.09.36Z" transform="translate(-39.97 -42.65)"/><path class="cls-9" d="M54.44,137.43a1,1,0,0,1-.16-.16,1.31,1.31,0,0,1-.26-.56.74.74,0,0,1,0-.21.62.62,0,0,1,.07-.23.27.27,0,0,1,.26-.1.41.41,0,0,1,.24.19,1.06,1.06,0,0,1-.1,1.11l-.1-.1.21-.11a1.24,1.24,0,0,1,1.22.15.69.69,0,0,1,.11.13.19.19,0,0,1,0,.18.38.38,0,0,1-.23.18.79.79,0,0,1-.48,0,1.54,1.54,0,0,1-.61-.31,1,1,0,0,1-.18-.17.94.94,0,0,1,.22.12,1.69,1.69,0,0,0,.58.26.79.79,0,0,0,.43,0,.26.26,0,0,0,.15-.12s0-.09-.08-.15a1.11,1.11,0,0,0-1.07-.12.69.69,0,0,0-.19.1.08.08,0,0,1-.1,0,.07.07,0,0,1,0-.09,1,1,0,0,0,.1-1c-.07-.13-.23-.17-.29-.08a.68.68,0,0,0-.07.37,1.28,1.28,0,0,0,.21.53A.82.82,0,0,1,54.44,137.43Z" transform="translate(-39.97 -42.65)"/><path class="cls-9" d="M54.63,138.51a3.84,3.84,0,0,0-.54-.35,3.48,3.48,0,0,0-.64-.14.85.85,0,0,1,.68,0A.8.8,0,0,1,54.63,138.51Z" transform="translate(-39.97 -42.65)"/><path class="cls-9" d="M54.7,139.33s-.23-.14-.53-.25-.56-.12-.56-.16a.92.92,0,0,1,.61.06A.88.88,0,0,1,54.7,139.33Z" transform="translate(-39.97 -42.65)"/><polygon class="cls-6" points="17.43 77.92 5.29 78.81 5.49 83.06 16.59 83.81 17.43 77.92"/><path class="cls-8" d="M45.83,126l.55,0a7.89,7.89,0,0,1,1-5L44,120.3l-2.21,10.17C42.8,130.63,45.83,126,45.83,126Z" transform="translate(-39.97 -42.65)"/><path class="cls-2" d="M44,120.3l.83.18-2.43,9.7s-.3.41-.61.29Z" transform="translate(-39.97 -42.65)"/><path class="cls-9" d="M45.87,125.84s0-.26-.12-.55-.29-.46-.27-.5.3.1.43.44S45.91,125.86,45.87,125.84Z" transform="translate(-39.97 -42.65)"/><path class="cls-2" d="M45.42,122.15a.26.26,0,0,1-.21-.3v0a.25.25,0,0,1,.3-.2h0a.29.29,0,0,1,.21.33h0a.27.27,0,0,1-.31.21Z" transform="translate(-39.97 -42.65)"/><path class="cls-9" d="M45.91,125.77a.81.81,0,0,1,0-.22,1.27,1.27,0,0,1,.17-.58,1.07,1.07,0,0,1,.14-.16.82.82,0,0,1,.2-.12.24.24,0,0,1,.27.1.34.34,0,0,1,0,.28,1.06,1.06,0,0,1-.8.77v-.14a.59.59,0,0,1,.23,0,1.18,1.18,0,0,1,.79.88.43.43,0,0,1,0,.16.24.24,0,0,1-.12.14.37.37,0,0,1-.29,0,.83.83,0,0,1-.36-.31,1.35,1.35,0,0,1-.24-.61,1,1,0,0,1,0-.24A.58.58,0,0,1,46,126a1.5,1.5,0,0,0,.27.57.75.75,0,0,0,.33.25.31.31,0,0,0,.19,0s.06-.07,0-.16a1.07,1.07,0,0,0-.71-.79l-.2,0a.07.07,0,1,1,0-.14,1,1,0,0,0,.7-.66c0-.14,0-.27-.15-.24a.66.66,0,0,0-.29.23,1.07,1.07,0,0,0-.2.52A1.05,1.05,0,0,1,45.91,125.77Z" transform="translate(-39.97 -42.65)"/><path class="cls-9" d="M45.37,126.7a3,3,0,0,0-.18-.6,3.75,3.75,0,0,0-.38-.51.8.8,0,0,1,.48.46A.78.78,0,0,1,45.37,126.7Z" transform="translate(-39.97 -42.65)"/><path class="cls-9" d="M44.87,127.33s-.08-.26-.24-.52a5.19,5.19,0,0,1-.31-.48.81.81,0,0,1,.41.43A.83.83,0,0,1,44.87,127.33Z" transform="translate(-39.97 -42.65)"/><path class="cls-9" d="M67.64,94.3c-.1.18-.59,5.61-.59,5.61s2.87,8.84,4.28,13c1.31,3.93,2.21,8.78,1,11s-12.3,9.64-12.3,9.64l-4.47-4,8.53-8.92-3.62-16.88L62.18,93Z" transform="translate(-39.97 -42.65)"/><path class="cls-9" d="M54.26,91.23s-3.7,5.84-3.93,8.89c-.26,3.49,2,7.42,3.17,9.86,1,2.24,4.92,10,4.92,10l-9,.86s-.53,3.83.57,6.12c0,0,11.36-.24,13.18-.36s4.43-1.11,4.37-4.43-3.7-15-3.7-15v-2l.56-2.45,1.44-8.87-6.62-2.62Z" transform="translate(-39.97 -42.65)"/><path class="cls-13" d="M67.29,97.65l.16-1.82-7.64-4.36-6.16,0L51.86,96s5.14-2,6.65-1.83S67.15,99,67.15,99Z" transform="translate(-39.97 -42.65)"/><path class="cls-8" d="M65,102.52l-.09.11-.26.29L63.55,104v0l.48,2.67h0c.47,1.78,1,4,1.73,6.6.34,1.28.69,2.64,1.06,4.07.19.71.38,1.44.57,2.18a9.1,9.1,0,0,1,.28,2.32,6.1,6.1,0,0,1-.33,2.07,3.51,3.51,0,0,1-.48.92,4.09,4.09,0,0,1-.72.72,5.25,5.25,0,0,1-1.76.9,4.29,4.29,0,0,1-.95.16l-.92,0-6.49.18-4.37.1-1.19,0h-.31l.31,0,1.19,0,4.37-.16,6.48-.2.93,0a3.61,3.61,0,0,0,.92-.15,5,5,0,0,0,1.7-.88,4.21,4.21,0,0,0,.7-.7,3.51,3.51,0,0,0,.46-.88,6.07,6.07,0,0,0,.32-2,9.3,9.3,0,0,0-.26-2.29c-.19-.74-.38-1.46-.57-2.17l-1-4.08-1.7-6.6h0c-.18-1-.33-2-.45-2.68v0h0l1.08-1.1.29-.29Z" transform="translate(-39.97 -42.65)"/><path class="cls-8" d="M58.48,119.91A38.05,38.05,0,0,1,60,122.5a6.88,6.88,0,0,1-.83-1.24A6.18,6.18,0,0,1,58.48,119.91Z" transform="translate(-39.97 -42.65)"/><path class="cls-8" d="M55.22,96.56a6,6,0,0,1,.74.11,9.73,9.73,0,0,0,1.79.11,8.92,8.92,0,0,0,1.78-.21,5.88,5.88,0,0,1,.73-.14,3,3,0,0,1-.71.24,8.3,8.3,0,0,1-3.61.1A3,3,0,0,1,55.22,96.56Z" transform="translate(-39.97 -42.65)"/><path class="cls-8" d="M59.71,99.79a4.3,4.3,0,0,1,.65.55,17.89,17.89,0,0,1,1.42,1.47A19.39,19.39,0,0,1,63,103.42a5.41,5.41,0,0,1,.45.72,6.55,6.55,0,0,1-.52-.66c-.32-.41-.77-1-1.29-1.57s-1-1.12-1.38-1.5A5.76,5.76,0,0,1,59.71,99.79Z" transform="translate(-39.97 -42.65)"/><path class="cls-8" d="M63.21,103.14a1.67,1.67,0,0,1,.08-.3c.06-.21.13-.48.23-.8.19-.68.45-1.62.69-2.68s.42-2,.52-2.71c.06-.32.1-.6.14-.82a1.08,1.08,0,0,1,.07-.31,1.6,1.6,0,0,1,0,.31c0,.2,0,.49-.1.84-.1.7-.26,1.67-.5,2.72s-.52,2-.73,2.68c-.11.33-.2.61-.26.78A1.55,1.55,0,0,1,63.21,103.14Z" transform="translate(-39.97 -42.65)"/><path class="cls-8" d="M44.48,88.93s-.32-10.27,0-12.41c.43-2.69,4.14-4.06,6.15-4.49a17.3,17.3,0,0,1,5.45.26s-.46,17.66-.59,17.8-2.66,4.26-2.66,4.26-7.33-.37-8-1.59S44.48,88.93,44.48,88.93Z" transform="translate(-39.97 -42.65)"/><path class="cls-9" d="M67.18,60c.38,1.89.08,3,1,4.09a4.25,4.25,0,0,0,3.77,1.51,1.68,1.68,0,0,1-1.71,1.64,1.7,1.7,0,0,1-1.13-.47,9.49,9.49,0,0,0,1.29,1.61A1.37,1.37,0,0,1,69,69.41a2.21,2.21,0,0,1-1.61-.93,2.36,2.36,0,0,0,1,1.56A3.81,3.81,0,0,1,63.15,70Z" transform="translate(-39.97 -42.65)"/><path class="cls-9" d="M53.71,62.23c.84-1.31,1.42-2.75,2.37-4a7.58,7.58,0,0,1,5.24-2.36L58.79,67.31c-.41,1.44.75,3.12-.73,3.54-.6,0-4-.22-4.64-1.34l.56-.76a1.26,1.26,0,0,1-1.22.11,3,3,0,0,1-1.17-1.18A3.66,3.66,0,0,0,53.16,66a2.23,2.23,0,0,1-1.94.43A1.53,1.53,0,0,1,50.08,65,5.69,5.69,0,0,0,53.71,62.23Z" transform="translate(-39.97 -42.65)"/><path class="cls-9" d="M57.78,60.53a8,8,0,0,0,.14-1.63,3.53,3.53,0,0,1,2.16-2.71,5.25,5.25,0,0,1,3.55,0,4.82,4.82,0,0,1,2.29,1.37,3.75,3.75,0,0,1,.8,3.36l-6.15-.68a6.76,6.76,0,0,1-1.81,1.28,1.29,1.29,0,0,1-.64.13.59.59,0,0,1-.49-.38A1.19,1.19,0,0,1,57.78,60.53Z" transform="translate(-39.97 -42.65)"/><path class="cls-6" d="M63.82,57.82l-5.3,1.31a1,1,0,0,0-.9,1l.46,11.57a3.68,3.68,0,0,0,.83,2.15l.53.64a2.64,2.64,0,0,0,3.71.37,2.81,2.81,0,0,0,.68-.85,1.08,1.08,0,0,0,.11-.3,2.51,2.51,0,0,0,0-.27L64,72.32c0-1,0-2.07,0-2.07a3.53,3.53,0,0,0,2.65-3.19,30.51,30.51,0,0,0,0-5.62C66.64,59.75,65.52,57.65,63.82,57.82Z" transform="translate(-39.97 -42.65)"/><path class="cls-9" d="M65.62,63.78a.36.36,0,0,1-.34.36.34.34,0,0,1-.37-.32h0a.36.36,0,0,1,.35-.36.34.34,0,0,1,.36.33Z" transform="translate(-39.97 -42.65)"/><path class="cls-9" d="M66.24,62.65c0,.05-.33-.15-.72-.15s-.68.19-.72.14,0-.11.15-.2a1,1,0,0,1,1.15,0C66.22,62.54,66.26,62.63,66.24,62.65Z" transform="translate(-39.97 -42.65)"/><path class="cls-9" d="M62.17,63.76a.37.37,0,0,1-.35.37.35.35,0,0,1-.37-.33h0a.36.36,0,0,1,.35-.37.34.34,0,0,1,.37.32Z" transform="translate(-39.97 -42.65)"/><path class="cls-9" d="M62.51,62.69s-.32-.16-.71-.16-.68.19-.72.14,0-.1.15-.19a1,1,0,0,1,.58-.18,1,1,0,0,1,.56.19C62.5,62.57,62.54,62.67,62.51,62.69Z" transform="translate(-39.97 -42.65)"/><path class="cls-9" d="M63.79,65.62a2.77,2.77,0,0,1,.64-.11c.1,0,.19,0,.21-.1a.49.49,0,0,0-.06-.29c-.1-.25-.2-.5-.3-.77a13.07,13.07,0,0,1-.65-2,14.15,14.15,0,0,1,.81,1.94l.28.76a.61.61,0,0,1,0,.4.25.25,0,0,1-.16.14l-.17,0A2.83,2.83,0,0,1,63.79,65.62Z" transform="translate(-39.97 -42.65)"/><path class="cls-7" d="M64,70.26a7.19,7.19,0,0,1-3.8-1A3.72,3.72,0,0,0,64.06,71Z" transform="translate(-39.97 -42.65)"/><path class="cls-9" d="M62.64,61.17c0,.11-.43.06-.89.11s-.83.18-.89.08,0-.14.19-.26a1.41,1.41,0,0,1,.66-.23,1.52,1.52,0,0,1,.7.09C62.57,61,62.67,61.12,62.64,61.17Z" transform="translate(-39.97 -42.65)"/><path class="cls-9" d="M66.13,60.94c-.07.09-.34,0-.67,0s-.6.06-.66,0,0-.13.14-.22a1,1,0,0,1,1.07,0C66.12,60.8,66.16,60.9,66.13,60.94Z" transform="translate(-39.97 -42.65)"/><path class="cls-9" d="M56.77,59.74c.5-1.65,2.84-4,4.56-3.85l2.76,1.6a2.65,2.65,0,0,1-1.76,2c-.49.15-1.07.2-1.35.63s-.11,1-.37,1.48c-.38.62-1.41.6-1.69,1.27-.12.29-.05.63-.18.92a1.83,1.83,0,0,1-1.52.75c-.4-.12-.22.22-.4-.12a6,6,0,0,1-.48-2.91A7.65,7.65,0,0,1,56.77,59.74Z" transform="translate(-39.97 -42.65)"/><path class="cls-6" d="M58.4,64.91c0-.21-.24-.71-.45-.74-.56-.09-1.57,0-1.57,1.37A1.45,1.45,0,0,0,58.31,67C58.31,67,58.4,65.64,58.4,64.91Z" transform="translate(-39.97 -42.65)"/><path class="cls-7" d="M57.72,66.3l-.09,0a.39.39,0,0,1-.26,0,.86.86,0,0,1-.38-.76,1.15,1.15,0,0,1,.1-.48.42.42,0,0,1,.26-.26.18.18,0,0,1,.2.09c0,.06,0,.1,0,.1s0,0,0-.11a.19.19,0,0,0-.07-.12.26.26,0,0,0-.19,0,.45.45,0,0,0-.35.29,1.13,1.13,0,0,0-.13.54.86.86,0,0,0,.49.84.35.35,0,0,0,.31-.05C57.72,66.35,57.73,66.3,57.72,66.3Z" transform="translate(-39.97 -42.65)"/><path class="cls-9" d="M63.51,56.93c.2.78,1.44,1.74,2,2.35,1.05,1.14,1.26,1.52,1.34,4.13a5.23,5.23,0,0,0,.45-2.81,5.35,5.35,0,0,0-1.47-3.05,2.19,2.19,0,0,0-2.3-.62" transform="translate(-39.97 -42.65)"/><path class="cls-9" d="M49.2,63.72l.36.12a3,3,0,0,0,1,.07A3.68,3.68,0,0,0,52,63.42a5.7,5.7,0,0,0,1.4-1.24,18.52,18.52,0,0,0,1.1-1.53l.85-1.31.57-.87a2.49,2.49,0,0,1,.23-.31,2.11,2.11,0,0,1-.18.33l-.54.9-.82,1.31a15.57,15.57,0,0,1-1.11,1.55,5.61,5.61,0,0,1-1.44,1.26A3.77,3.77,0,0,1,50.6,64a2.68,2.68,0,0,1-1.05-.12,1.19,1.19,0,0,1-.26-.11Q49.2,63.74,49.2,63.72Z" transform="translate(-39.97 -42.65)"/><path class="cls-9" d="M71.44,64l-.08,0-.27.13a2.72,2.72,0,0,1-1,.17,2.82,2.82,0,0,1-1.48-.45,2.51,2.51,0,0,1-.67-.63,3.21,3.21,0,0,1-.46-.88A9.53,9.53,0,0,1,67,60.53,9.69,9.69,0,0,0,66.7,59,4,4,0,0,0,66,57.81l.08.07a1.29,1.29,0,0,1,.19.21,3.26,3.26,0,0,1,.49.92,7.8,7.8,0,0,1,.36,1.5,10.36,10.36,0,0,0,.43,1.83,3.12,3.12,0,0,0,.44.85,2.59,2.59,0,0,0,2,1.06,2.68,2.68,0,0,0,1-.13C71.3,64,71.43,64,71.44,64Z" transform="translate(-39.97 -42.65)"/><path class="cls-8" d="M55.16,57.51s.44.31,1.21.69a8.56,8.56,0,0,0,3.22.82,8.66,8.66,0,0,0,1.83-.11,5.63,5.63,0,0,0,1.43-.44,3,3,0,0,0,1-.88.19.19,0,0,1,0,.09,1.19,1.19,0,0,1-.16.23,2.49,2.49,0,0,1-.8.64,5,5,0,0,1-1.45.48,7.74,7.74,0,0,1-1.86.13,8,8,0,0,1-3.25-.88,7,7,0,0,1-.88-.52A2.26,2.26,0,0,1,55.16,57.51Z" transform="translate(-39.97 -42.65)"/><path class="cls-8" d="M55,59.41s.32.17.85.39a7.48,7.48,0,0,0,4.41.42c.57-.12.91-.25.91-.22s-.07,0-.22.1a4.2,4.2,0,0,1-.66.21,6.84,6.84,0,0,1-4.48-.42c-.21-.1-.41-.21-.61-.33S55,59.43,55,59.41Z" transform="translate(-39.97 -42.65)"/><path class="cls-8" d="M52.88,64.07s.44,0,1.14-.12a8.67,8.67,0,0,0,2.6-1c1-.52,1.77-1.08,2.39-1.45.3-.19.55-.34.73-.43A.92.92,0,0,1,60,61a1.27,1.27,0,0,1-.27.18l-.7.47c-.6.39-1.41,1-2.38,1.49a8.25,8.25,0,0,1-2.64.94,4.85,4.85,0,0,1-.85,0A1.45,1.45,0,0,1,52.88,64.07Z" transform="translate(-39.97 -42.65)"/><path class="cls-8" d="M52.07,65c.65,0,1.31-.07,2-.15a17.65,17.65,0,0,0,1.9-.49,1.72,1.72,0,0,1-.52.27,8,8,0,0,1-1.36.36,8.17,8.17,0,0,1-1.4.09A2.25,2.25,0,0,1,52.07,65Z" transform="translate(-39.97 -42.65)"/><path class="cls-7" d="M62.43,66.76a1.8,1.8,0,0,1,.15-.5s0-.08.08-.09h.06l1.08.43a1.28,1.28,0,0,1-.21.42.88.88,0,0,1-.46.35.56.56,0,0,1-.55-.13A.56.56,0,0,1,62.43,66.76Z" transform="translate(-39.97 -42.65)"/><path class="cls-9" d="M63.34,67.34a.26.26,0,0,1-.1.07.65.65,0,0,1-.34,0,.81.81,0,0,1-.4-.28.83.83,0,0,1,.1-.89.16.16,0,0,1,.07-.07.13.13,0,0,1,.12,0l.13,0,.43.18a1.41,1.41,0,0,1,.39.19,1.24,1.24,0,0,1-.42-.11l-.45-.15-.12,0h0l0,0a1.34,1.34,0,0,0-.12.24.58.58,0,0,0,0,.5.7.7,0,0,0,.33.26A.82.82,0,0,0,63.34,67.34Z" transform="translate(-39.97 -42.65)"/><path class="cls-10" d="M65.05,72.86c.19.17,5.33,6.83,4.94,9.2s-.64,3.14-.86,4.84c-.52,4.11.14,6.33,0,8.16S68,97.6,67.79,97.49a91.45,91.45,0,0,0-8.24-5.08C54.47,90,53.4,95,52.22,94.84s-1.38-.66-1.38-.66,1.71-.17,1.91-1.06,2.59-9.23,2.59-9.23L54.1,72.83l3.38-1.24,6,.67Z" transform="translate(-39.97 -42.65)"/><path class="cls-10" d="M63.12,72.71a1.35,1.35,0,0,1,.94-.34,18.4,18.4,0,0,0,2.46-.45l2-1.64c1.7.44,5.62,4.33,4.58,5.51l-2.69,2.73-.58,2.66-4.33-5.26Z" transform="translate(-39.97 -42.65)"/><path class="cls-6" d="M64.05,72.26s2.53,2.65,2.12,3.9-1.55.72-2.59.38c-2.63-.86-5.49-4.89-5.49-4.89h0Z" transform="translate(-39.97 -42.65)"/><path class="cls-8" d="M69.92,81.54a8.19,8.19,0,0,0,.34-5.67c-1-2.68-3.14-5.16-6.22-5.61v.63s4.79,3.69,5.26,6a8.43,8.43,0,0,1,.38,2.4Z" transform="translate(-39.97 -42.65)"/><path class="cls-9" d="M68.59,76.08a1,1,0,0,1,.16.26c.09.17.2.42.34.74a11.87,11.87,0,0,1,.72,2.56A11.29,11.29,0,0,1,70,82.3c0,.34,0,.62-.08.8a1.59,1.59,0,0,1-.06.3s0-.43,0-1.1a14.53,14.53,0,0,0-.18-2.64A14.14,14.14,0,0,0,69,77.11C68.76,76.47,68.57,76.09,68.59,76.08Z" transform="translate(-39.97 -42.65)"/><path class="cls-9" d="M56.79,88.67l.13,0a2,2,0,0,1,.35,0,3.75,3.75,0,0,1,1.28.26,6.4,6.4,0,0,1,1.63,1.05c.56.47,1.12,1,1.75,1.58A17,17,0,0,0,65.39,94a12.42,12.42,0,0,0,1.18.52l.44.17-.12,0-.34-.1a10.5,10.5,0,0,1-1.21-.48,16.12,16.12,0,0,1-3.5-2.46c-.63-.55-1.2-1.12-1.74-1.59A6.27,6.27,0,0,0,58.51,89a3.52,3.52,0,0,0-1.24-.3C57,88.66,56.8,88.69,56.79,88.67Z" transform="translate(-39.97 -42.65)"/><path class="cls-9" d="M46.74,76a5.58,5.58,0,0,0,.71,2.28c.44.78,3.47,4,3.93,3.71s-2.06-5.59-2.06-5.59Z" transform="translate(-39.97 -42.65)"/><path class="cls-6" d="M49.25,77.18c-.17.12-9.06,5.9-9.27,7.67a3.85,3.85,0,0,0,1.92,3.24c1.67,1.13,5.7,3.7,5.7,3.7l2.23-2.1a52.68,52.68,0,0,1-4.65-4.28l7.33-4.34Z" transform="translate(-39.97 -42.65)"/><path class="cls-7" d="M43.39,84.37a.66.66,0,0,1,.34,0,2,2,0,0,1,.78.26,2.14,2.14,0,0,1,.6.56c.11.18.15.31.13.31a3.36,3.36,0,0,0-.8-.75A3.51,3.51,0,0,0,43.39,84.37Z" transform="translate(-39.97 -42.65)"/><path class="cls-10" d="M55.68,72.26a15.56,15.56,0,0,0-3.14.95c-1.2.59-5.81,2.79-5.81,2.79a7.21,7.21,0,0,1,2.65,2,17.43,17.43,0,0,1,2,4L55,80Z" transform="translate(-39.97 -42.65)"/><path class="cls-8" d="M55.83,70.59a1.9,1.9,0,0,1,2.24,1.59,22.39,22.39,0,0,1-.5,6.95c-.41,1.63-2.68,4-2.68,4l-.09-2.49A11.53,11.53,0,0,0,56,75.14c-.16-3.14-.27-3.81-.79-4s-1.68,1.69-1.68,1.69l-.58.2S53.6,70.48,55.83,70.59Z" transform="translate(-39.97 -42.65)"/><polygon class="cls-9" points="13.13 50.09 16.48 41.69 11.3 37.19 10.07 37.24 5.74 46.39 11.7 51.15 12.74 51.09 13.13 50.09"/><path class="cls-8" d="M51.36,93.37A2,2,0,0,1,51.5,93l.4-.92c.35-.78.82-1.83,1.33-3s.94-2.28,1.26-3.06c.15-.38.27-.69.37-.93a2.07,2.07,0,0,1,.15-.34,1.4,1.4,0,0,1-.1.35c-.07.23-.19.55-.34,1-.29.79-.71,1.89-1.22,3.08s-1,2.26-1.36,3c-.18.38-.34.69-.45.9A2,2,0,0,1,51.36,93.37Z" transform="translate(-39.97 -42.65)"/><path class="cls-6" d="M49.84,89.69s1.39-.85,1.6-1,1.49-.11,1.73-.36.76-.09.59.51a1.82,1.82,0,0,1-1.71,1.08s2,1,2,1.36a.62.62,0,0,1-.45.65s.68.59-.21,1.09c0,0,.29.5-.57.83,0,0,.2.35-.44.55s-1.26.51-1.71.06S47.88,92,47.88,92l-2.62-1.92,1.05-3.48Z" transform="translate(-39.97 -42.65)"/><path class="cls-7" d="M52.3,91.54a3.28,3.28,0,0,1,.68.19,3.2,3.2,0,0,1,.66.22,1.34,1.34,0,0,1-.71-.09A1.4,1.4,0,0,1,52.3,91.54Z" transform="translate(-39.97 -42.65)"/><path class="cls-7" d="M51.82,92.91a2.48,2.48,0,0,1,.77,0,2.16,2.16,0,0,1,.76.11,2,2,0,0,1-.77,0A2.19,2.19,0,0,1,51.82,92.91Z" transform="translate(-39.97 -42.65)"/><path class="cls-7" d="M51.65,93.83a1.52,1.52,0,0,1,.59-.12,1.57,1.57,0,0,1,.61,0,1.24,1.24,0,0,1-.6.12A1.35,1.35,0,0,1,51.65,93.83Z" transform="translate(-39.97 -42.65)"/><path class="cls-7" d="M51.67,91.17s.11-.13.15-.32,0-.33,0-.35.06,0,.1.08a.47.47,0,0,1-.13.56C51.73,91.19,51.67,91.19,51.67,91.17Z" transform="translate(-39.97 -42.65)"/><path class="cls-7" d="M51.27,92.21s.08-.15.11-.33,0-.33,0-.34.16.13.11.37S51.29,92.25,51.27,92.21Z" transform="translate(-39.97 -42.65)"/><path class="cls-7" d="M50.9,93.49s.11-.13.17-.31,0-.32,0-.34.06,0,.09.09a.48.48,0,0,1,0,.29.43.43,0,0,1-.18.24C51,93.5,50.91,93.5,50.9,93.49Z" transform="translate(-39.97 -42.65)"/><path class="cls-9" d="M52.9,73.07a2,2,0,0,1,.22-.68A3.78,3.78,0,0,1,54.17,71a1,1,0,0,1,.48-.19.8.8,0,0,1,.47.13,1.16,1.16,0,0,1,.48.63,3,3,0,0,1,.11.52.94.94,0,0,1,0,.19s-.06-.26-.21-.67a1.06,1.06,0,0,0-.45-.55.59.59,0,0,0-.39-.1.94.94,0,0,0-.42.16,3.29,3.29,0,0,0-.63.66,4.65,4.65,0,0,0-.41.64C53,72.82,52.92,73.07,52.9,73.07Z" transform="translate(-39.97 -42.65)"/><path class="cls-9" d="M54.9,71.11s-.35.31-.67.77-.46.9-.52.9a2.33,2.33,0,0,1,1.19-1.66Z" transform="translate(-39.97 -42.65)"/><path class="cls-9" d="M53.75,82.12s.42-.54.84-1.26.66-1.37.7-1.36a5.39,5.39,0,0,1-1.54,2.62Z" transform="translate(-39.97 -42.65)"/><polygon class="cls-3" points="16.12 41.63 11.13 37.2 10.28 37.23 15.25 41.66 16.12 41.63"/></g></svg>