<svg id="Layer_1" data-name="Layer 1" xmlns="http://www.w3.org/2000/svg" viewBox="0 0 140.46 109.73"><defs><style>.cls-1{fill:#ebebeb;}.cls-2{fill:#f1f0f0;}.cls-3{fill:#e0e1e0;}.cls-4{fill:#f5f6f6;}.cls-5{fill:#fafbfc;}.cls-6{fill:#e6e6e5;}.cls-7{fill:#273339;}.cls-11,.cls-8{fill:#5274b9;}.cls-16,.cls-9{fill:#fff;}.cls-9{opacity:0.8;}.cls-11,.cls-17,.cls-9{isolation:isolate;}.cls-10{fill:#f37260;}.cls-11,.cls-12{opacity:0.3;}.cls-13,.cls-14{fill:#dc7c27;}.cls-14{opacity:0.5;}.cls-15{fill:#fbb474;}.cls-17{fill:#010101;opacity:0.2;}.cls-18{fill:#ec893f;}</style></defs><g id="freepik--background-complete--inject-34"><rect class="cls-1" y="100.21" width="140.46" height="0.07"/><rect class="cls-1" x="91.18" y="102.12" width="9.3" height="0.07"/><rect class="cls-1" x="120.4" y="102.74" width="2.44" height="0.07"/><rect class="cls-1" x="100.76" y="104.73" width="5.39" height="0.07"/><rect class="cls-1" x="58.1" y="103.78" width="12.13" height="0.07"/><rect class="cls-1" x="53.82" y="103.78" width="1.78" height="0.07"/><rect class="cls-1" x="21.72" y="102.6" width="26.32" height="0.07"/><path class="cls-1" d="M95.9,134.6H41.65a1.61,1.61,0,0,1-1.6-1.61V56.74a1.6,1.6,0,0,1,1.6-1.59H95.9a1.61,1.61,0,0,1,1.6,1.61h0V133A1.61,1.61,0,0,1,95.9,134.6ZM41.65,55.21a1.54,1.54,0,0,0-1.53,1.53V133a1.54,1.54,0,0,0,1.53,1.54H95.9A1.54,1.54,0,0,0,97.43,133V56.74a1.54,1.54,0,0,0-1.53-1.53Z" transform="translate(-29.32 -46.91)"/><path class="cls-1" d="M156.66,134.6H102.42a1.61,1.61,0,0,1-1.61-1.61V56.74a1.61,1.61,0,0,1,1.61-1.59h54.24a1.61,1.61,0,0,1,1.6,1.59V133A1.61,1.61,0,0,1,156.66,134.6ZM102.42,55.21a1.54,1.54,0,0,0-1.54,1.53V133a1.54,1.54,0,0,0,1.54,1.54h54.24A1.55,1.55,0,0,0,158.2,133V56.74a1.55,1.55,0,0,0-1.54-1.53Z" transform="translate(-29.32 -46.91)"/><rect class="cls-2" x="57.42" y="57.49" width="5" height="42"/><rect class="cls-3" x="24.85" y="99.49" width="36.6" height="0.69"/><rect class="cls-4" x="23.89" y="57.49" width="33.53" height="42"/><rect class="cls-4" x="111.53" y="57.49" width="3.57" height="42.72"/><rect class="cls-5" x="111.88" y="57.49" width="1.58" height="42.72"/><rect class="cls-5" x="114.06" y="57.49" width="0.65" height="42.72"/><rect class="cls-1" x="111.53" y="57.49" width="3.57" height="0.74"/><rect class="cls-3" x="116.62" y="55.83" width="5" height="1.65"/><rect class="cls-6" x="23.22" y="55.83" width="93.39" height="1.65"/><path class="cls-6" d="M84.91,114.32H55v-7.39H84.91ZM55.32,114H84.63v-6.83H55.32Z" transform="translate(-29.32 -46.91)"/><path class="cls-6" d="M84.91,143.88H55V116.17H84.91Zm-29.59-.28H84.63V116.45H55.32Z" transform="translate(-29.32 -46.91)"/><path class="cls-6" d="M80.73,140H59.21V120.8H80.73Zm-21.32-.2H80.52V121H59.42Z" transform="translate(-29.32 -46.91)"/><path class="cls-6" d="M68,108.05h4a.49.49,0,0,0,.49-.49h0a.49.49,0,0,0-.49-.49H68a.49.49,0,0,0-.49.49h0A.49.49,0,0,0,68,108.05Z" transform="translate(-29.32 -46.91)"/><path class="cls-6" d="M68,117.28h4a.49.49,0,0,0,.49-.48h0a.49.49,0,0,0-.49-.49H68a.49.49,0,0,0-.49.49h0A.49.49,0,0,0,68,117.28Z" transform="translate(-29.32 -46.91)"/><rect class="cls-1" x="33.62" y="48.44" width="18.82" height="7.39" rx="3.37"/><rect class="cls-1" x="39.14" y="44.75" width="12.37" height="4.86" rx="2.22"/><rect class="cls-4" x="46.74" y="51.48" width="3.34" height="1.31" rx="0.6"/><rect class="cls-4" x="28.87" y="48.44" width="18.82" height="7.39" rx="3.37"/><polygon class="cls-4" points="106.11 47.17 70.47 47.17 67.56 55.83 103.21 55.83 106.11 47.17"/><polygon class="cls-3" points="96.7 48.22 71.48 48.22 69.42 54.35 94.64 54.35 96.7 48.22"/><polygon class="cls-3" points="106.11 47.17 115.51 47.17 112.6 55.83 103.21 55.83 106.11 47.17"/><path class="cls-3" d="M107.44,61.08H91a4,4,0,0,1-4-4h0a4,4,0,0,1,4-4h16.41a4,4,0,0,1,4,4h0A4,4,0,0,1,107.44,61.08Z" transform="translate(-29.32 -46.91)"/><ellipse class="cls-6" cx="69.92" cy="18.07" rx="24.44" ry="6.33"/><ellipse class="cls-2" cx="69.92" cy="20.22" rx="21.77" ry="5.06"/><ellipse class="cls-6" cx="69.92" cy="20.22" rx="20.68" ry="3.93"/><path class="cls-4" d="M116.22,64.89c-3.74-1-10-1.68-17-1.68s-13.25.66-17,1.68a1.17,1.17,0,0,0-.41.82c0,2.12,7.78,3.83,17.38,3.83s17.39-1.71,17.39-3.83A1.19,1.19,0,0,0,116.22,64.89Z" transform="translate(-29.32 -46.91)"/><ellipse class="cls-3" cx="143.87" cy="67.94" rx="4.59" ry="9.28" transform="translate(-35.22 74.71) rotate(-45)"/><ellipse class="cls-1" cx="142.76" cy="69.04" rx="2.85" ry="7.85" transform="translate(-36.32 74.25) rotate(-45)"/><path class="cls-4" d="M148.47,72.45a17.7,17.7,0,0,0-9.12-9.12,1.35,1.35,0,0,0-.53.31c-1.08,1.09.13,4.06,2.71,6.63s5.54,3.79,6.63,2.71A1.35,1.35,0,0,0,148.47,72.45Z" transform="translate(-29.32 -46.91)"/><ellipse class="cls-3" cx="55.23" cy="67.94" rx="9.28" ry="4.59" transform="translate(-61.18 12.04) rotate(-45)"/><ellipse class="cls-1" cx="56.34" cy="69.04" rx="7.85" ry="2.85" transform="translate(-61.64 13.14) rotate(-45)"/><path class="cls-4" d="M50.62,72.45A15,15,0,0,1,54.32,67a14.88,14.88,0,0,1,5.42-3.7,1.35,1.35,0,0,1,.53.31c1.08,1.09-.13,4.06-2.71,6.63S52,74.06,50.93,73A1.35,1.35,0,0,1,50.62,72.45Z" transform="translate(-29.32 -46.91)"/><path class="cls-3" d="M52.54,66.34a.71.71,0,0,1-.42-.14c-2-1.46-3.84-6.05-2.25-9.64C51,54,54.25,51.26,63.06,53c7.3,1.46,13.2-.72,18-2.47,5.82-2.15,10.84-4,14.89,2.6a.7.7,0,0,1-1.2.74c-3.46-5.62-7.34-4.19-13.22-2-4.91,1.81-11,4.06-18.72,2.52-6.23-1.25-10.25-.3-11.6,2.72-1.27,2.82.22,6.77,1.79,7.95a.7.7,0,0,1,.14,1,.69.69,0,0,1-.56.28Z" transform="translate(-29.32 -46.91)"/><path class="cls-3" d="M52.54,65.92a.27.27,0,0,1-.17-.06c-2-1.49-4.31-7.86-2.28-11.75,1.14-2.19,4-4.3,11.39-1.85,6.48,2.16,9.87,1.41,13.79.53,4.44-1,9.46-2.12,20.13.47a.26.26,0,0,1,.19.34.28.28,0,0,1-.32.2c-10.54-2.55-15.5-1.44-19.87-.47-4,.9-7.47,1.68-14.1-.53-5.52-1.84-9.23-1.3-10.72,1.57-1.88,3.59.31,9.68,2.13,11a.29.29,0,0,1,0,.4h0A.27.27,0,0,1,52.54,65.92Z" transform="translate(-29.32 -46.91)"/><path class="cls-3" d="M146.37,65.92a.28.28,0,0,1-.28-.28.29.29,0,0,1,.19-.27c7-2.44,8.61-6.68,7.77-9.83a7.94,7.94,0,0,0-9.17-5.35,27.42,27.42,0,0,0-4.6,1.4c-4.15,1.54-8.07,3-13.67-2.12s-13.2.69-17.73,4.16a18.13,18.13,0,0,1-2.86,2,.29.29,0,0,1-.37-.15.28.28,0,0,1,.16-.37,17.15,17.15,0,0,0,2.73-1.9C112.9,49.84,121,43.63,127,49.05c5.36,4.87,9,3.55,13.1,2a28.33,28.33,0,0,1,4.7-1.43,8.53,8.53,0,0,1,9.83,5.76c.91,3.4-.75,7.94-8.15,10.52Z" transform="translate(-29.32 -46.91)"/><path class="cls-3" d="M146.37,66.34a.77.77,0,0,1-.39-.11.72.72,0,0,1-.2-1h0c4.23-6.37,5.9-11.47,4.45-13.64-1-1.48-3.41-1.37-5.27-1a28.65,28.65,0,0,0-5.13,1.68c-4.78,1.89-10.21,4-15.94-1.19-3.73-3.4-5-2.39-7.63-.15A20.35,20.35,0,0,1,106,56a.72.72,0,0,1-.8-.6.69.69,0,0,1,.55-.78,18.79,18.79,0,0,0,9.55-4.78c2.71-2.25,4.85-4,9.48.18,5.08,4.63,9.65,2.83,14.48.93a30.14,30.14,0,0,1,5.38-1.75c3.32-.63,5.57-.09,6.7,1.61,2.46,3.7-1.73,11.11-4.44,15.2A.7.7,0,0,1,146.37,66.34Z" transform="translate(-29.32 -46.91)"/></g><g id="freepik--Board--inject-34"><polygon class="cls-7" points="48.08 58.85 48.7 58.85 36.22 108.64 35.6 108.64 48.08 58.85"/><polygon class="cls-7" points="50.45 58.85 49.83 58.85 62.31 108.64 62.94 108.64 50.45 58.85"/><rect class="cls-8" x="26.39" y="30.92" width="45.76" height="58.49"/><rect class="cls-9" x="26.39" y="30.92" width="45.76" height="58.49"/><rect class="cls-8" x="31.95" y="29.16" width="5.42" height="0.28"/><rect class="cls-8" x="28.38" y="29.16" width="1.63" height="0.28"/><path class="cls-10" d="M102.34,78.62H54.83a.78.78,0,0,1-.79-.77h0a.78.78,0,0,1,.78-.78h47.52a.78.78,0,0,1,.78.78h0A.78.78,0,0,1,102.34,78.62Z" transform="translate(-29.32 -46.91)"/><path class="cls-10" d="M102.34,137.1H54.83a.77.77,0,0,1-.79-.76h0a.78.78,0,0,1,.78-.78h47.52a.78.78,0,0,1,.78.78h0A.78.78,0,0,1,102.34,137.1Z" transform="translate(-29.32 -46.91)"/><path class="cls-11" d="M78.58,130.72c-11.56,0-21-11.19-21-25s9.41-25,21-25,21,11.2,21,25S90.14,130.72,78.58,130.72Zm0-49.74c-11.47,0-20.8,11.12-20.8,24.79s9.33,24.78,20.8,24.78,20.79-11.12,20.79-24.78S90.05,81,78.58,81Z" transform="translate(-29.32 -46.91)"/><path class="cls-11" d="M67.72,104.65a2.35,2.35,0,1,1,2.35-2.35h0A2.35,2.35,0,0,1,67.72,104.65Zm0-4.53a2.18,2.18,0,1,0,2.18,2.18A2.18,2.18,0,0,0,67.72,100.12Z" transform="translate(-29.32 -46.91)"/><path class="cls-11" d="M82.55,109.57a2.35,2.35,0,1,1,2.36-2.35h0A2.36,2.36,0,0,1,82.55,109.57Zm0-4.53a2.19,2.19,0,1,0,2.19,2.18h0A2.19,2.19,0,0,0,82.55,105Z" transform="translate(-29.32 -46.91)"/><path class="cls-10" d="M84.87,88.76c0,4.61-2.81,9.62-6.29,9.62s-6.28-5-6.28-9.62,2.81-7.22,6.28-7.22S84.87,84.15,84.87,88.76Z" transform="translate(-29.32 -46.91)"/><path class="cls-7" d="M77.72,92.06s-2.37,1-4.09.12-2.13-3.5-2.13-3.5,2.38-1.06,4.1-.12S77.72,92.06,77.72,92.06Z" transform="translate(-29.32 -46.91)"/><path class="cls-7" d="M79.44,92.06s2.38,1,4.1.12,2.12-3.5,2.12-3.5-2.37-1.06-4.09-.12S79.44,92.06,79.44,92.06Z" transform="translate(-29.32 -46.91)"/><path class="cls-7" d="M77.62,92.91A1.67,1.67,0,0,1,78.3,94" transform="translate(-29.32 -46.91)"/><path class="cls-7" d="M79.55,92.91A1.7,1.7,0,0,0,78.86,94" transform="translate(-29.32 -46.91)"/><polygon class="cls-10" points="50.13 53.9 48.41 53.9 48.61 49.89 49.92 49.89 50.13 53.9"/><path class="cls-10" d="M76.63,100h3.9A1.49,1.49,0,0,1,82,101.46v.1l-.32,4.8v.15l.15,4.85a1.49,1.49,0,0,1-1.44,1.53h-3.6a1.49,1.49,0,0,1-1.49-1.49v0l.15-4.85v-.15l-.32-4.8A1.49,1.49,0,0,1,76.54,100Z" transform="translate(-29.32 -46.91)"/><path class="cls-10" d="M75.33,111.51a65.94,65.94,0,0,0,1.08,7.91.66.66,0,0,0,.65.53h.28a.65.65,0,0,0,.65-.63l.32-7.3Z" transform="translate(-29.32 -46.91)"/><path class="cls-10" d="M77.59,119.25a3.86,3.86,0,0,1,.47,2.66c-.12,1-.37,3.85-.47,4.34s-.77.33-.77.33-.17-5.53-.4-6.45S77.13,118.41,77.59,119.25Z" transform="translate(-29.32 -46.91)"/><path class="cls-10" d="M76.9,126.23a6.2,6.2,0,0,1-2.21,2.44c-1,.5-.16,1.4,1.18,1.18s1-1.58,1.54-2.16a1.2,1.2,0,0,0,.08-1.71C77.07,125.68,76.9,126.23,76.9,126.23Z" transform="translate(-29.32 -46.91)"/><path class="cls-10" d="M77.86,119.73A1,1,0,0,1,77,120.8a1.12,1.12,0,0,1-.94-1.16,1,1,0,0,1,.89-1.07A1.14,1.14,0,0,1,77.86,119.73Z" transform="translate(-29.32 -46.91)"/><g class="cls-12"><path class="cls-13" d="M76.18,109.8a67,67,0,0,0-3.6,7.13.65.65,0,0,0,.23.8l.22.16a.67.67,0,0,0,.9-.15l4.41-5.82Z" transform="translate(-29.32 -46.91)"/><path class="cls-13" d="M73.64,117.46a3.89,3.89,0,0,1-1.12,2.45c-.66.75-2.5,3-2.86,3.31s-.82-.17-.82-.17,3-4.65,3.33-5.54S73.74,116.51,73.64,117.46Z" transform="translate(-29.32 -46.91)"/><path class="cls-13" d="M69.11,122.79a6.06,6.06,0,0,1-3.2.75c-1.11-.16-.93,1.06.3,1.65s1.71-.73,2.49-.91a1.2,1.2,0,0,0,1-1.36C69.57,122.43,69.11,122.79,69.11,122.79Z" transform="translate(-29.32 -46.91)"/><path class="cls-13" d="M73.58,118a.93.93,0,0,1-1.33.37,1.12,1.12,0,0,1-.11-1.49.94.94,0,0,1,1.33-.37A1.12,1.12,0,0,1,73.58,118Z" transform="translate(-29.32 -46.91)"/></g><path class="cls-14" d="M81,109.8a65.27,65.27,0,0,1,3.61,7.13.65.65,0,0,1-.23.8l-.22.16a.67.67,0,0,1-.9-.15l-4.41-5.82Z" transform="translate(-29.32 -46.91)"/><path class="cls-14" d="M83.53,117.46a3.93,3.93,0,0,0,1.13,2.45c.66.75,2.49,3,2.85,3.31s.82-.17.82-.17-3-4.65-3.34-5.53S83.42,116.51,83.53,117.46Z" transform="translate(-29.32 -46.91)"/><path class="cls-14" d="M88.05,122.79a6.1,6.1,0,0,0,3.21.75c1.11-.16.93,1.06-.3,1.65s-1.72-.73-2.5-.91a1.2,1.2,0,0,1-1-1.36C87.59,122.43,88.05,122.79,88.05,122.79Z" transform="translate(-29.32 -46.91)"/><path class="cls-14" d="M83.58,118a1,1,0,0,0,1.34.37,1.12,1.12,0,0,0,.11-1.49,1,1,0,0,0-1.34-.37A1.14,1.14,0,0,0,83.58,118Z" transform="translate(-29.32 -46.91)"/><path class="cls-10" d="M81.85,111.51a68.05,68.05,0,0,1-1.09,7.91.65.65,0,0,1-.64.53h-.28a.67.67,0,0,1-.66-.63l-.31-7.3Z" transform="translate(-29.32 -46.91)"/><path class="cls-10" d="M79.57,119.25a3.94,3.94,0,0,0-.46,2.66c.11,1,.37,3.85.46,4.34s.77.33.77.33.18-5.53.41-6.45S80,118.41,79.57,119.25Z" transform="translate(-29.32 -46.91)"/><path class="cls-10" d="M80.26,126.23a6.24,6.24,0,0,0,2.22,2.44c1,.5.16,1.4-1.18,1.18s-1-1.58-1.54-2.16a1.19,1.19,0,0,1-.08-1.71C80.1,125.68,80.26,126.23,80.26,126.23Z" transform="translate(-29.32 -46.91)"/><path class="cls-10" d="M79.32,119.73c0,.62.38,1.1.89,1.07a1.13,1.13,0,0,0,.94-1.16,1,1,0,0,0-.89-1.07A1.12,1.12,0,0,0,79.32,119.73Z" transform="translate(-29.32 -46.91)"/><path class="cls-10" d="M80.44,100.58c0-.38.44-.64,1-.52,3.46.77,6.54,1.62,7.79,2,.35.1.56.31.55.51l0,.18c0,.22-.38.35-.78.29l-7.6-1.09a.89.89,0,0,1-.79-.58Z" transform="translate(-29.32 -46.91)"/><path class="cls-10" d="M88.93,102.75a7.43,7.43,0,0,0,3,.81c1.14.12,4.42.5,5,.53s.41-.62.41-.62-6.24-1-7.26-1.3S88,102.3,88.93,102.75Z" transform="translate(-29.32 -46.91)"/><path class="cls-10" d="M89.37,103.19c.43.1.82-.07.86-.39s-.28-.67-.7-.78-.82.08-.86.4S88.94,103.08,89.37,103.19Z" transform="translate(-29.32 -46.91)"/><path class="cls-10" d="M96.56,103.59c.39-.48.7-.33,1.41-.19s1.26.24,1.27.68.14,1.07-.77,1.14S96,104.33,96.56,103.59Z" transform="translate(-29.32 -46.91)"/><path class="cls-10" d="M96.66,103.49c-.17-.29,1.1-.43,1.58-.68s.21.28-.24.49S97.39,104.79,96.66,103.49Z" transform="translate(-29.32 -46.91)"/><g class="cls-12"><path class="cls-13" d="M79.88,101.81c-.36-.13-.35-.67,0-1.09,2.32-2.61,4.53-4.86,5.44-5.76.25-.25.54-.35.7-.23l.14.11c.18.13.13.48-.11.8l-4.58,6a.88.88,0,0,1-.89.4Z" transform="translate(-29.32 -46.91)"/><path class="cls-13" d="M85.82,95.55a7.64,7.64,0,0,0,2.12-2.17c.64-.92,2.54-3.56,2.84-4s-.35-.64-.35-.64-3.83,4.89-4.59,5.61S85,96.12,85.82,95.55Z" transform="translate(-29.32 -46.91)"/><ellipse class="cls-13" cx="85.93" cy="95.04" rx="0.8" ry="0.57" transform="translate(-70.38 31.11) rotate(-40.25)"/><path class="cls-13" d="M90.19,89.39c-.24-.56,0-.75.49-1.29s.81-1,1.2-.77,1,.38.63,1.2S90.56,90.24,90.19,89.39Z" transform="translate(-29.32 -46.91)"/><path class="cls-13" d="M90.14,89.26c-.33,0,.16-1.14.16-1.68s.36,0,.32.44S91.63,89.25,90.14,89.26Z" transform="translate(-29.32 -46.91)"/></g><path class="cls-10" d="M76.71,100.58c.06-.38-.43-.64-1-.52-3.45.77-6.54,1.62-7.79,2-.34.1-.56.31-.54.51l0,.18c0,.22.37.35.78.29l7.6-1.09a.9.9,0,0,0,.79-.58Z" transform="translate(-29.32 -46.91)"/><path class="cls-10" d="M68.23,102.75a7.36,7.36,0,0,1-3,.81c-1.12.12-4.41.5-5,.53s-.41-.62-.41-.62,6.24-1,7.26-1.3S69.15,102.3,68.23,102.75Z" transform="translate(-29.32 -46.91)"/><path class="cls-10" d="M67.8,103.19c-.43.1-.81-.07-.86-.39s.28-.67.7-.78.82.08.86.4S68.23,103.08,67.8,103.19Z" transform="translate(-29.32 -46.91)"/><path class="cls-10" d="M60.6,103.59c-.38-.48-.7-.33-1.4-.19s-1.26.24-1.28.68-.14,1.07.78,1.14S61.18,104.33,60.6,103.59Z" transform="translate(-29.32 -46.91)"/><path class="cls-10" d="M60.5,103.49c.16-.29-1.11-.43-1.59-.68s-.21.28.25.49S59.78,104.79,60.5,103.49Z" transform="translate(-29.32 -46.91)"/><g class="cls-12"><path class="cls-13" d="M77.29,101.81c.36-.13.34-.67,0-1.09C75,98.11,72.74,95.86,71.83,95c-.25-.25-.54-.35-.7-.23l-.14.11c-.18.13-.13.48.11.8l4.57,6a.88.88,0,0,0,.89.4Z" transform="translate(-29.32 -46.91)"/><path class="cls-13" d="M71.35,95.55a7.5,7.5,0,0,1-2.12-2.17c-.64-.92-2.55-3.56-2.84-4s.34-.64.34-.64,3.83,4.89,4.6,5.61S72.18,96.12,71.35,95.55Z" transform="translate(-29.32 -46.91)"/><path class="cls-13" d="M70.77,95.38c-.3-.32-.33-.74-.07-.93a.82.82,0,0,1,1,.24c.3.32.33.74.07.93A.82.82,0,0,1,70.77,95.38Z" transform="translate(-29.32 -46.91)"/><path class="cls-13" d="M67,89.39c.24-.56,0-.75-.5-1.29s-.81-1-1.2-.77-1,.38-.63,1.2S66.62,90.24,67,89.39Z" transform="translate(-29.32 -46.91)"/><path class="cls-13" d="M67,89.26c.33,0-.16-1.14-.17-1.68s-.35,0-.31.44S65.56,89.25,67,89.26Z" transform="translate(-29.32 -46.91)"/></g><g class="cls-12"><path class="cls-8" d="M99.47,133H57.69a.08.08,0,0,1-.08-.08.09.09,0,0,1,.08-.09H99.47a.1.1,0,0,1,.08.09A.09.09,0,0,1,99.47,133Z" transform="translate(-29.32 -46.91)"/><path class="cls-8" d="M57.69,133.42a.07.07,0,0,1-.08-.08v-1.09a.08.08,0,1,1,.16,0v1.09a.07.07,0,0,1-.07.08Z" transform="translate(-29.32 -46.91)"/><path class="cls-8" d="M59.59,133.42a.08.08,0,0,1-.08-.08v-1.09a.09.09,0,0,1,.08-.09.09.09,0,0,1,.09.09v1.09a.09.09,0,0,1-.08.08Z" transform="translate(-29.32 -46.91)"/><path class="cls-8" d="M61.49,133.42a.08.08,0,0,1-.08-.08h0v-1.09a.09.09,0,0,1,.08-.09.09.09,0,0,1,.09.09v1.09a.09.09,0,0,1-.08.08Z" transform="translate(-29.32 -46.91)"/><path class="cls-8" d="M63.39,133.42a.08.08,0,0,1-.08-.08h0v-1.09a.09.09,0,0,1,.08-.09s.08,0,.09.09v1.09A.08.08,0,0,1,63.39,133.42Z" transform="translate(-29.32 -46.91)"/><path class="cls-8" d="M65.29,133.42a.08.08,0,0,1-.08-.08h0v-1.09a.08.08,0,0,1,.08-.09s.08,0,.09.09v1.09A.08.08,0,0,1,65.29,133.42Z" transform="translate(-29.32 -46.91)"/><path class="cls-8" d="M67.19,133.42a.08.08,0,0,1-.08-.08h0v-1.09a.08.08,0,1,1,.16,0v1.09A.07.07,0,0,1,67.19,133.42Z" transform="translate(-29.32 -46.91)"/><path class="cls-8" d="M69.09,133.42a.08.08,0,0,1-.09-.08v-1.09a.09.09,0,0,1,.09-.09.09.09,0,0,1,.08.09v1.09a.08.08,0,0,1-.08.08Z" transform="translate(-29.32 -46.91)"/><path class="cls-8" d="M71,133.42a.08.08,0,0,1-.09-.08v-1.09a.09.09,0,0,1,.09-.09.09.09,0,0,1,.08.09v1.09a.08.08,0,0,1-.08.08Z" transform="translate(-29.32 -46.91)"/><path class="cls-8" d="M72.88,133.42a.08.08,0,0,1-.08-.08h0v-1.09a.09.09,0,0,1,.08-.09.09.09,0,0,1,.09.09v1.09a.08.08,0,0,1-.08.08Z" transform="translate(-29.32 -46.91)"/><path class="cls-8" d="M74.78,133.42a.08.08,0,0,1-.08-.08h0v-1.09a.09.09,0,0,1,.08-.09.09.09,0,0,1,.09.09v1.09a.09.09,0,0,1-.08.08Z" transform="translate(-29.32 -46.91)"/><path class="cls-8" d="M76.68,133.42a.08.08,0,0,1-.08-.08h0v-1.09a.09.09,0,0,1,.08-.09.09.09,0,0,1,.09.09v1.09A.08.08,0,0,1,76.68,133.42Z" transform="translate(-29.32 -46.91)"/><path class="cls-8" d="M78.58,133.42a.08.08,0,0,1-.08-.08h0v-1.09a.09.09,0,0,1,.08-.09s.08,0,.09.09v1.09A.08.08,0,0,1,78.58,133.42Z" transform="translate(-29.32 -46.91)"/><path class="cls-8" d="M80.48,133.42a.08.08,0,0,1-.09-.08v-1.09c0-.05,0-.09.09-.09a.09.09,0,0,1,.08.09v1.09a.08.08,0,0,1-.08.08Z" transform="translate(-29.32 -46.91)"/><path class="cls-8" d="M82.38,133.42a.08.08,0,0,1-.09-.08v-1.09a.09.09,0,0,1,.09-.09.09.09,0,0,1,.08.09v1.09a.08.08,0,0,1-.08.08Z" transform="translate(-29.32 -46.91)"/><path class="cls-8" d="M84.28,133.42a.08.08,0,0,1-.09-.08h0v-1.09a.09.09,0,0,1,.09-.09.09.09,0,0,1,.08.09v1.09a.08.08,0,0,1-.08.08Z" transform="translate(-29.32 -46.91)"/><path class="cls-8" d="M86.18,133.42a.08.08,0,0,1-.09-.08h0v-1.09a.09.09,0,0,1,.09-.09.09.09,0,0,1,.08.09v1.09a.08.08,0,0,1-.08.08Z" transform="translate(-29.32 -46.91)"/><path class="cls-8" d="M88.07,133.42a.08.08,0,0,1-.08-.08h0v-1.09a.09.09,0,0,1,.08-.09.09.09,0,0,1,.09.09v1.09A.08.08,0,0,1,88.07,133.42Z" transform="translate(-29.32 -46.91)"/><path class="cls-8" d="M90,133.42a.08.08,0,0,1-.08-.08h0v-1.09a.09.09,0,0,1,.08-.09.09.09,0,0,1,.09.09v1.09A.08.08,0,0,1,90,133.42Z" transform="translate(-29.32 -46.91)"/><path class="cls-8" d="M91.87,133.42a.07.07,0,0,1-.08-.08h0v-1.09a.08.08,0,0,1,.07-.1.07.07,0,0,1,.09.07,0,0,0,0,1,0,0v1.09a.07.07,0,0,1-.07.08Z" transform="translate(-29.32 -46.91)"/><path class="cls-8" d="M93.77,133.42a.08.08,0,0,1-.09-.08v-1.09c0-.05,0-.09.09-.09a.08.08,0,0,1,.08.09v1.09a.08.08,0,0,1-.08.08Z" transform="translate(-29.32 -46.91)"/><path class="cls-8" d="M95.67,133.42a.08.08,0,0,1-.09-.08v-1.09a.09.09,0,0,1,.09-.09.09.09,0,0,1,.08.09v1.09a.08.08,0,0,1-.08.08Z" transform="translate(-29.32 -46.91)"/><path class="cls-8" d="M97.58,133.42a.08.08,0,0,1-.08-.08h0v-1.09a.08.08,0,1,1,.16,0v1.09a.07.07,0,0,1-.07.08Z" transform="translate(-29.32 -46.91)"/><path class="cls-8" d="M99.47,133.42a.08.08,0,0,1-.09-.08h0v-1.09a.09.09,0,0,1,.09-.09.09.09,0,0,1,.08.09v1.09A.08.08,0,0,1,99.47,133.42Z" transform="translate(-29.32 -46.91)"/></g></g><g id="freepik--Character--inject-34"><path class="cls-10" d="M123.46,88c-.16.46-.31.84-.48,1.27s-.34.82-.52,1.23c-.35.81-.75,1.61-1.17,2.41a21.58,21.58,0,0,1-3.17,4.59,9.64,9.64,0,0,1-1.16,1,6.83,6.83,0,0,1-1.46.84,8.27,8.27,0,0,1-3,.61,11.4,11.4,0,0,1-2.85-.28,10.61,10.61,0,0,1-1.34-.36,11.43,11.43,0,0,1-1.31-.5,1,1,0,0,1,.5-1.87h.1l.56.06.59.05c.4,0,.8,0,1.19,0s.77,0,1.15,0a7.87,7.87,0,0,0,1.1-.15,5.9,5.9,0,0,0,1.87-.67,4,4,0,0,0,.71-.51,7.61,7.61,0,0,0,.67-.72,15.65,15.65,0,0,0,1.27-1.86c.39-.67.78-1.37,1.12-2.1s.7-1.46,1-2.2l.48-1.13c.15-.37.32-.76.45-1.1v0a2,2,0,1,1,3.7,1.38Z" transform="translate(-29.32 -46.91)"/><path class="cls-10" d="M136,98.45V98c0-.21,0-.42,0-.62q0-.63-.12-1.23a40.46,40.46,0,0,0-.93-4.61c-.19-.75-.39-1.49-.6-2.24s-.43-1.46-.68-2.23a.41.41,0,0,0,0-.08,2,2,0,1,0-3.68,1.4h0c.25.65.5,1.35.73,2s.45,1.38.65,2.07a37.52,37.52,0,0,1,1,4.16c.06.34.11.68.14,1,0,.17,0,.33,0,.49a.09.09,0,0,1,0,.07,3.61,3.61,0,0,1-.44.22,15.5,15.5,0,0,1-3.92.84h0a1.64,1.64,0,0,0,.28,3.27l1.21-.13c.4,0,.79-.11,1.19-.18a14.18,14.18,0,0,0,2.47-.62,6,6,0,0,0,1.39-.69,3.52,3.52,0,0,0,.79-.75,2.48,2.48,0,0,0,.37-.63,2.59,2.59,0,0,0,.2-.82v-.26Zm-3.35-.36h0s0,0,0,0Z" transform="translate(-29.32 -46.91)"/><path class="cls-15" d="M107.88,97.26l-2.28-.11.59,2.4a.61.61,0,0,0,.19,0A1.65,1.65,0,0,0,108,97.86a1.53,1.53,0,0,0-.12-.6Z" transform="translate(-29.32 -46.91)"/><polygon class="cls-15" points="74.23 51.48 75.72 53.01 76.87 52.64 76.28 50.23 74.23 51.48"/><polygon class="cls-7" points="78.25 53.18 57.27 41.14 57.37 40.98 78.39 52.94 78.25 53.18"/><path class="cls-16" d="M130.37,85.64c-.31-.06-.62-.11-.94-.15a43.69,43.69,0,0,0-5-.47h-.6a10.64,10.64,0,0,0-1.2.08,2.34,2.34,0,0,0-2.06,1.77,68.49,68.49,0,0,0-1.47,17.58l11.75.63a85.94,85.94,0,0,1,1.92-16.53A2.33,2.33,0,0,0,131,85.77Z" transform="translate(-29.32 -46.91)"/><path class="cls-15" d="M129.46,79.83c-.46,1.58-1.05,4.48,0,5.66a3.66,3.66,0,0,1-3.33,1.21c-1.38-.16-2-1.17-1.65-1.69,1.83-.26,1.91-1.59,1.71-2.86Z" transform="translate(-29.32 -46.91)"/><path class="cls-7" d="M125.93,87.46l.52.06a.29.29,0,0,0,.22-.07l.51-.47-.79-.74-1,.43.3.63A.26.26,0,0,0,125.93,87.46Z" transform="translate(-29.32 -46.91)"/><path class="cls-3" d="M126.39,86.25a2.43,2.43,0,0,1,.93,1.61,8.48,8.48,0,0,0,2.68-2l-.72-.91A6.68,6.68,0,0,1,126.39,86.25Z" transform="translate(-29.32 -46.91)"/><path class="cls-3" d="M126.39,86.25s-1.29.54-1.31,1.45c-1-.37-1.14-1.82-1.22-2.63l1.12-.31C125,85.43,125.39,86,126.39,86.25Z" transform="translate(-29.32 -46.91)"/><path class="cls-17" d="M128.12,80.78l-2,1.38a4.49,4.49,0,0,1,.07.9,2.22,2.22,0,0,0,1.84-1.41A2.54,2.54,0,0,0,128.12,80.78Z" transform="translate(-29.32 -46.91)"/><path class="cls-7" d="M125.17,76.78c0,1-.38,1.82-.84,1.82s-.84-.81-.84-1.82.38-1.81.84-1.81S125.17,75.79,125.17,76.78Z" transform="translate(-29.32 -46.91)"/><path class="cls-15" d="M124.86,78.14a2.06,2.06,0,0,1,0,1.58c-.3.67-1,.53-1.38,0s-.6-1.49-.07-2A.92.92,0,0,1,124.86,78.14Z" transform="translate(-29.32 -46.91)"/><path class="cls-17" d="M124.86,78.14a2.06,2.06,0,0,1,0,1.58c-.3.67-1,.53-1.38,0s-.6-1.49-.07-2A.92.92,0,0,1,124.86,78.14Z" transform="translate(-29.32 -46.91)"/><path class="cls-15" d="M129.89,77.44c-.34,2.16-.42,3.44-1.62,4.45A2.9,2.9,0,0,1,123.56,80c-.28-2,.32-5.18,2.52-5.84a3,3,0,0,1,3.72,2A3.18,3.18,0,0,1,129.89,77.44Z" transform="translate(-29.32 -46.91)"/><path class="cls-7" d="M129.29,75.05a1.68,1.68,0,0,0-.93,2.42,1.34,1.34,0,0,1-.17,1.69l1,.58s2.34-1.4,2.57-2.48S131.21,74.17,129.29,75.05Z" transform="translate(-29.32 -46.91)"/><path class="cls-7" d="M130.33,74.9l.25.23a1.48,1.48,0,0,1,1.57.24A1.38,1.38,0,0,0,130.33,74.9Z" transform="translate(-29.32 -46.91)"/><path class="cls-7" d="M130.38,75.25c-.87.6-5,1.24-6.42,0a1.32,1.32,0,0,1,1.2-2.31c1.24.33,1.27-.56,1-.62.64-.15.6.65.5.93s-.36.67.26.41a5.33,5.33,0,0,1,3.09-.32A1.1,1.1,0,0,1,130.38,75.25Z" transform="translate(-29.32 -46.91)"/><path class="cls-15" d="M130.63,79.92a2.07,2.07,0,0,1-1.37.8c-.72.09-1-.59-.68-1.21s.95-1.29,1.63-1.09a.93.93,0,0,1,.61,1.17A.84.84,0,0,1,130.63,79.92Z" transform="translate(-29.32 -46.91)"/><path class="cls-7" d="M126.53,77.74c0,.18-.12.31-.24.3s-.2-.16-.18-.34.12-.31.24-.3S126.55,77.56,126.53,77.74Z" transform="translate(-29.32 -46.91)"/><path class="cls-7" d="M124.53,77.56c0,.17-.12.31-.24.3s-.19-.17-.17-.34.12-.32.24-.3S124.55,77.38,124.53,77.56Z" transform="translate(-29.32 -46.91)"/><path class="cls-18" d="M125.16,77.7a6.37,6.37,0,0,1-1,1.43,1,1,0,0,0,.82.24Z" transform="translate(-29.32 -46.91)"/><path class="cls-7" d="M125.7,79.91a.88.88,0,0,1-.23,0,0,0,0,0,1,0,0,.05.05,0,0,1,0,0,1.42,1.42,0,0,0,1.2-.44,0,0,0,0,1,.07,0,0,0,0,0,1,0,.05A1.43,1.43,0,0,1,125.7,79.91Z" transform="translate(-29.32 -46.91)"/><path class="cls-7" d="M127.2,77.15a.11.11,0,0,1-.09,0,.83.83,0,0,0-.63-.41.11.11,0,0,1-.1-.11h0a.1.1,0,0,1,.1-.1,1,1,0,0,1,.81.51.1.1,0,0,1,0,.14h-.06Z" transform="translate(-29.32 -46.91)"/><path class="cls-7" d="M123.74,76.78h-.06a.1.1,0,0,1,0-.14h0a1.05,1.05,0,0,1,.8-.52.1.1,0,0,1,.11.1h0a.1.1,0,0,1-.1.11.83.83,0,0,0-.63.41A.1.1,0,0,1,123.74,76.78Z" transform="translate(-29.32 -46.91)"/><polygon class="cls-15" points="87.54 108.01 85.5 107.86 86.41 102.45 88.45 102.61 87.54 108.01"/><path class="cls-7" d="M114.58,153.65l2.63.49a.13.13,0,0,1,.12.16h0l-.4,1.92a.43.43,0,0,1-.49.3c-.84-.17-1.44-.33-2.5-.53-.66-.12-2.21-.34-3.12-.5s-.64-1.05-.23-1.06a8.16,8.16,0,0,0,3.58-.73A.71.71,0,0,1,114.58,153.65Z" transform="translate(-29.32 -46.91)"/><polygon class="cls-17" points="88.45 102.61 86.4 102.45 85.94 105.24 87.98 105.39 88.45 102.61"/><path class="cls-7" d="M119.12,104.46s-1.76,18-2.5,24.42c-.81,7-1.79,21.73-1.79,21.73l3.41.13s2.35-13.61,3.5-20.4c1.31-7.72,5-25.47,5-25.47Z" transform="translate(-29.32 -46.91)"/><path class="cls-17" d="M124.11,112.24c-1.67,2.14-1.87,9.23-1.5,13.35.66-3.55,1.48-7.71,2.21-11.37Z" transform="translate(-29.32 -46.91)"/><polygon class="cls-8" points="84.95 104.37 88.93 104.77 89.34 103.38 85.12 102.87 84.95 104.37"/><path class="cls-8" d="M114,153.94a.75.75,0,0,1-.39-.19.31.31,0,0,1-.05-.28.15.15,0,0,1,.11-.13c.26-.08.88.48.95.55s0,.05,0,.07l0,0A2.93,2.93,0,0,1,114,153.94Zm-.23-.51a.09.09,0,0,0-.07,0,.07.07,0,0,0,0,0,.18.18,0,0,0,0,.2,1.08,1.08,0,0,0,.76.19,2.15,2.15,0,0,0-.68-.44Z" transform="translate(-29.32 -46.91)"/><path class="cls-8" d="M114.58,154h0c-.2-.16-.55-.71-.46-1a.18.18,0,0,1,.19-.1.29.29,0,0,1,.21.11,1.51,1.51,0,0,1,.14.91s0,0,0,0Zm-.28-1h0c-.07,0-.08,0-.08,0s.15.55.34.76a1.2,1.2,0,0,0-.13-.72.14.14,0,0,0-.1-.07Z" transform="translate(-29.32 -46.91)"/><polygon class="cls-15" points="101.95 107.78 99.75 107.78 99.33 102.68 101.53 102.68 101.95 107.78"/><path class="cls-7" d="M128.79,154.13h2.68a.19.19,0,0,1,.19.15l.43,2a.32.32,0,0,1-.25.38h-.07c-.86,0-1.49-.07-2.58-.07-.67,0-2.33.07-3.26.07s-1-.91-.66-1a6.8,6.8,0,0,0,3.16-1.37A.61.61,0,0,1,128.79,154.13Z" transform="translate(-29.32 -46.91)"/><polygon class="cls-17" points="101.53 102.69 99.33 102.69 99.55 105.31 101.75 105.31 101.53 102.69"/><path class="cls-7" d="M123.29,104.68s1.48,18.79,2.25,25.19c.84,7,2.62,20.74,2.62,20.74l3.42.13s-.26-13.79-.73-20.65c-.53-7.82,0-25,0-25Z" transform="translate(-29.32 -46.91)"/><polygon class="cls-8" points="98.66 104.59 102.5 104.59 102.5 103.17 98.23 103.08 98.66 104.59"/><path class="cls-8" d="M128.06,154.52a.68.68,0,0,1-.42-.11.34.34,0,0,1-.11-.29.17.17,0,0,1,.09-.14c.24-.13.95.31,1,.36a.05.05,0,0,1,0,0s0,0,0,0A2.8,2.8,0,0,1,128.06,154.52Zm-.32-.46h-.07s0,0,0,.06a.21.21,0,0,0,.07.19,1,1,0,0,0,.79,0A2.29,2.29,0,0,0,127.74,154.06Z" transform="translate(-29.32 -46.91)"/><path class="cls-8" d="M128.63,154.44h0c-.23-.12-.67-.61-.62-.84a.16.16,0,0,1,.17-.14.26.26,0,0,1,.22.07c.25.21.3.84.31.87s0,0,0,0Zm-.45-.89h0c-.07,0-.08,0-.08,0s.25.51.48.68a1.25,1.25,0,0,0-.26-.69.16.16,0,0,0-.12,0Z" transform="translate(-29.32 -46.91)"/><path class="cls-10" d="M129.33,84.84a58.18,58.18,0,0,0-2.53,12.89c-.69,7.63-1.39,23.54-.8,28.13a19.45,19.45,0,0,0,6.61-2s-1.46-19.23-.84-24.38c.55-4.56,1.44-9.5,1.86-11.77a1.63,1.63,0,0,0-1.15-1.87Z" transform="translate(-29.32 -46.91)"/><polygon class="cls-16" points="101.83 44.51 99.3 44.01 99.34 43.63 101.87 44.13 101.83 44.51"/><path class="cls-10" d="M125,84.69A140.07,140.07,0,0,0,122.3,99.9c-.87,7.62-1.66,21-2.51,25.59a6.11,6.11,0,0,1-4.19-1.81s1.69-20.07,2.32-25.23c.58-4.74,1.57-9.75,2-12A1.74,1.74,0,0,1,121.52,85Z" transform="translate(-29.32 -46.91)"/><path class="cls-7" d="M126.25,86.85l-.34.42-2.26,10.3a29.92,29.92,0,0,0,.78,3.74c.89-2.22,1.53-3.49,1.53-3.49l.49-10.67Z" transform="translate(-29.32 -46.91)"/></g></svg>